<?xml version="1.0" standalone="no"?>
<!DOCTYPE svg PUBLIC "-//W3C//DTD SVG 1.1//EN" "http://www.w3.org/Graphics/SVG/1.1/DTD/svg11.dtd" >
<svg xmlns="http://www.w3.org/2000/svg" xmlns:xlink="http://www.w3.org/1999/xlink" version="1.1">
<metadata>
Created by FontForge 20170731 at Wed Jul 25 16:02:51 2018
 By Aleksey,,,
Copyright (c) 2018 by Fontastica. All rights reserved.
</metadata>
<defs>
<font id="Normal-Regular" horiz-adv-x="978" >
  <font-face 
    font-family="Normal"
    font-weight="400"
    font-stretch="normal"
    units-per-em="2048"
    panose-1="0 0 5 0 0 0 0 0 0 0"
    ascent="1589"
    descent="-459"
    x-height="1032"
    cap-height="1495"
    bbox="-60 -457 2041 1720"
    underline-thickness="50"
    underline-position="-200"
    unicode-range="U+0020-2122"
  />
<missing-glyph horiz-adv-x="1196" 
 />
    <glyph glyph-name=".notdef" horiz-adv-x="1196" 
 />
    <glyph glyph-name=".null" horiz-adv-x="0" 
 />
    <glyph glyph-name="nonmarkingreturn" horiz-adv-x="682" 
 />
    <glyph glyph-name="space" unicode=" " horiz-adv-x="622" 
 />
    <glyph glyph-name="exclam" unicode="!" horiz-adv-x="671" 
d="M335 254q63 0 101 -37q39 -37 39 -96q0 -58 -39 -95q-40 -38 -101 -38q-60 0 -100 38q-40 37 -40 95t40 95q40 38 100 38zM441 1495l-20 -1085h-171l-20 1085h211z" />
    <glyph glyph-name="quotedbl" unicode="&#x22;" horiz-adv-x="803" 
d="M321 937h-171v501h171v-501zM653 937h-171v501h171v-501z" />
    <glyph glyph-name="numbersign" unicode="#" horiz-adv-x="1380" 
d="M1288 1036v-147h-197l-49 -322h197v-151h-224l-65 -414h-169l63 414h-402l-69 -414h-169l68 414h-179v151h205l54 322h-209v147h234l65 398h169l-63 -398h395l64 398h169l-63 -398h175zM469 567h401l50 322h-397z" />
    <glyph glyph-name="dollar" unicode="$" horiz-adv-x="1213" 
d="M532 157l-1 483q-120 25 -204 60q-75 30 -114.5 66t-70.5 101t-31 145q0 161 111 262.5t304 118.5v156h160v-157q189 -20 295.5 -131.5t106.5 -288.5h-181q0 98 -59.5 163.5t-160.5 86.5l-1 -439l1 1q6 -2 17 -4t14 -3q108 -25 152 -43q98 -41 132 -69q68 -57 92 -109
q35 -75 35 -163q0 -166 -124.5 -276t-326.5 -131v-167h-146v166q-215 18 -331.5 136t-116.5 312h185q0 -115 69 -187t194 -89zM529 1225q-106 -15 -170.5 -69.5t-64.5 -136.5q0 -39 22 -83q11 -21 62 -58q21 -16 91 -40q44 -18 61 -23zM680 157q111 19 187.5 83.5
t76.5 150.5q0 63 -29 99q-38 45 -79 64q-57 26 -114 41l-42 11v-449z" />
    <glyph glyph-name="percent" unicode="%" horiz-adv-x="1739" 
d="M413 821q-152 0 -249 91t-97 234q0 142 97 232.5t249 90.5q151 0 247 -90.5t96 -232.5q0 -143 -96.5 -234t-246.5 -91zM495 -8h-194l914 1444h193zM275 1014q56 -53 138 -53q83 0 137 52.5t54 132.5t-54 131t-137 51q-84 0 -138 -51.5t-54 -130.5q0 -81 54 -132z
M1329 -11q-151 0 -247 90t-96 231t96 231t247 90t247 -89.5t96 -231.5t-96 -231.5t-247 -89.5zM1193 181q54 -51 136 -51q83 0 136 50.5t53 129.5t-53 130t-136 51t-136.5 -51t-53.5 -130q0 -80 54 -129z" />
    <glyph glyph-name="ampersand" unicode="&#x26;" horiz-adv-x="1339" 
d="M1331 0h-206q-67 68 -126 129q-179 -151 -448 -151q-205 0 -330 104.5t-125 276.5q0 150 93 254q81 90 210 167q-94 119 -131.5 202t-37.5 167q0 141 103.5 224t276.5 83q167 0 271 -82.5t104 -215.5q0 -111 -71 -206q-52 -69 -174 -147q-58 -35 -106 -62
q147 -171 352 -386q4 7 17 30.5t16 29.5t12 24.5t13 30.5t10 32t11 43l151 -34q-27 -99 -46 -143.5t-71 -131.5q63 -63 232 -238zM610 1319q-97 0 -157 -47t-60 -123q0 -99 147 -290q107 60 162 102q41 30 64.5 57.5t39.5 64.5q16 35 16 75q0 71 -59 116t-153 45zM567 135
q183 0 319 110q-261 273 -390 419q-116 -71 -171.5 -140t-55.5 -159q0 -103 81.5 -166.5t216.5 -63.5z" />
    <glyph glyph-name="quotesingle" unicode="'" horiz-adv-x="470" 
d="M321 937h-171v501h171v-501z" />
    <glyph glyph-name="parenleft" unicode="(" horiz-adv-x="647" 
d="M615 -273h-203q-147 200 -226 442.5t-79 503.5q0 263 79 504.5t226 444.5h203q-150 -193 -238.5 -440.5t-88.5 -508.5q0 -262 88.5 -510.5t238.5 -435.5z" />
    <glyph glyph-name="parenright" unicode=")" horiz-adv-x="647" 
d="M236 -273h-202q149 186 237.5 434.5t88.5 511.5q0 261 -88.5 509t-237.5 440h202q147 -203 226 -445t79 -504q0 -261 -79 -503t-226 -443z" />
    <glyph glyph-name="asterisk" unicode="*" horiz-adv-x="856" 
d="M719 1298l49 -126l-228 -72l150 -182l-107 -86l-156 193l-154 -193l-110 86l152 182l-225 72l47 126l220 -73v223h142v-223z" />
    <glyph glyph-name="plus" unicode="+" horiz-adv-x="1129" 
d="M655 784h403v-161h-403v-402h-178v402h-406v161h406v391h178v-391z" />
    <glyph glyph-name="comma" unicode="," horiz-adv-x="564" 
d="M423 160q0 -26 -10 -56l-142 -391h-140l111 326q-35 16 -67 48q-31 31 -31 73q0 58 40 95q40 38 100 38q59 0 100 -38q39 -37 39 -95z" />
    <glyph glyph-name="hyphen" unicode="-" 
d="M831 488h-683v168h683v-168z" />
    <glyph glyph-name="period" unicode="." horiz-adv-x="564" 
d="M281 254q63 0 101 -37q39 -37 39 -96q0 -58 -39 -95q-40 -38 -101 -38q-59 0 -99 38q-40 37 -40 95t40 95q40 38 99 38z" />
    <glyph glyph-name="slash" unicode="/" horiz-adv-x="932" 
d="M248 -140h-192l629 1699h190z" />
    <glyph glyph-name="zero" unicode="0" horiz-adv-x="1363" 
d="M187 1092q11 121 77 217q66 98 175 153q109 56 242 56q134 0 244 -56q109 -55 175 -153q65 -97 76 -217q11 -127 11 -344q0 -218 -11 -345q-11 -120 -76 -217q-66 -98 -175 -153q-110 -56 -244 -56q-133 0 -242 56q-109 55 -175 153q-66 96 -77 217q-11 127 -11 345
q0 217 11 344zM390 420q6 -72 45 -129q38 -58 102 -89q66 -32 144 -32q80 0 146 32q63 31 103 89q38 58 44 129q9 91 9 328q0 236 -9 327q-6 71 -44 129q-40 58 -103 89q-66 32 -146 32q-78 0 -144 -32q-64 -31 -102 -89q-39 -57 -45 -129q-10 -99 -10 -327q0 -229 10 -328z
" />
    <glyph glyph-name="one" unicode="1" horiz-adv-x="981" 
d="M510 1288l-351 -206v209l351 204h206v-1495h-206v1288z" />
    <glyph glyph-name="two" unicode="2" horiz-adv-x="1260" 
d="M1120 190v-190h-982v172l613 604q76 76 112 142t36 143t-35 138q-36 60 -100 93t-147 33q-81 0 -143 -31q-63 -31 -99 -89q-35 -58 -37 -132h-207q2 129 62 229q62 101 172 159q111 57 255 57q142 0 252 -57q109 -57 171 -158q61 -101 61 -230q0 -119 -54 -218
q-55 -99 -166 -208l-464 -457h700z" />
    <glyph glyph-name="three" unicode="3" horiz-adv-x="1256" 
d="M1110 416q0 -124 -63 -225q-62 -99 -176 -157q-112 -57 -256 -57q-143 0 -256 57q-114 56 -175 156q-63 99 -63 222h203q5 -72 41 -126q37 -56 102 -87q63 -31 148 -31q84 0 151 32q65 31 103 90q36 58 36 132q0 73 -35 132q-36 57 -100 90q-66 32 -148 32l-220 1v180
l218 -1q76 0 136 30q59 30 94 84q34 53 34 122q0 70 -33 124q-36 54 -94 82q-63 29 -137 29q-76 0 -134 -27q-59 -29 -92 -78q-34 -52 -35 -118h-207q0 118 60 212q58 93 166 148q107 54 242 54q138 0 244 -54q106 -56 165 -150q59 -97 59 -216q0 -102 -48 -187
q-48 -86 -132 -140q95 -54 149 -147q53 -95 53 -208z" />
    <glyph glyph-name="four" unicode="4" horiz-adv-x="1338" 
d="M1257 631v-187h-255v-444h-202v444h-697v154l677 897h222v-864h255zM800 631v605l-459 -605h459z" />
    <glyph glyph-name="five" unicode="5" horiz-adv-x="1331" 
d="M1182 461q0 -137 -66 -247q-66 -111 -184 -174t-269 -63q-150 0 -269 62q-119 61 -187 171q-67 109 -67 243h202q2 -83 42 -147q41 -65 114 -101q71 -37 165 -37t167 37q74 38 113 104q40 65 40 150t-40 152q-41 67 -114 104t-166 37h-446l97 743h811v-190h-634l-48 -371
h241q144 0 257 -61t178 -170q63 -108 63 -242z" />
    <glyph glyph-name="six" unicode="6" horiz-adv-x="1320" 
d="M1192 471q0 -140 -68 -253q-68 -112 -189 -177q-121 -64 -275 -64q-150 0 -271 64q-123 64 -191 175q-69 111 -69 249q0 93 32 186q31 90 87 172l453 672h232l-374 -553q56 8 101 8q155 0 276 -61q121 -62 188 -171q68 -110 68 -247zM989 469q0 89 -42 158
q-42 70 -117 107q-76 38 -172 38q-95 0 -169 -38q-75 -38 -116 -107q-42 -69 -42 -158q0 -87 42 -154q41 -69 116 -106q73 -39 169 -39q97 0 172 39q74 37 117 106q42 67 42 154z" />
    <glyph glyph-name="seven" unicode="7" horiz-adv-x="1233" 
d="M99 1495h1013v-182l-603 -1313h-214l600 1305h-796v190z" />
    <glyph glyph-name="eight" unicode="8" horiz-adv-x="1295" 
d="M1149 418q0 -126 -63 -226q-65 -102 -178 -158q-116 -57 -261 -57q-146 0 -260 57t-177 158q-64 100 -64 226q0 114 53 206t146 147q-80 53 -127 140q-46 85 -46 187q0 120 60 216q60 94 168 150q106 54 247 54q139 0 248 -54q108 -56 168 -150q59 -97 59 -216
q0 -102 -45 -187q-47 -87 -128 -140q96 -56 148 -147t52 -206zM376 1087q0 -71 34 -124q32 -54 95 -85q61 -30 142 -30t143 30q61 30 95 85q33 54 33 124q0 71 -33 127q-34 55 -95 85t-143 30q-80 0 -142 -30q-63 -31 -95 -85q-34 -55 -34 -127zM944 426q0 77 -37 136
q-37 58 -105 93q-67 33 -155 33q-87 0 -155 -33q-68 -35 -104 -93q-37 -59 -37 -136t37 -135q36 -60 104 -93q67 -34 155 -34q89 0 156 34q66 32 104 93q37 58 37 135z" />
    <glyph glyph-name="nine" unicode="9" horiz-adv-x="1320" 
d="M1191 1030q0 -95 -31 -185t-88 -173l-454 -672h-232l375 553q-56 -8 -102 -8q-153 0 -274 62q-122 62 -189 170q-68 110 -68 247q0 140 68 253t189 177t274 64q151 0 273 -63q121 -64 190 -175q69 -112 69 -250zM662 723q94 0 170 38q74 38 116 107q41 70 41 158
q0 86 -41 154q-42 68 -116 107q-76 38 -170 38q-96 0 -172 -38q-75 -39 -117 -107t-42 -154q0 -89 42 -158q42 -70 117 -107q76 -38 172 -38z" />
    <glyph glyph-name="colon" unicode=":" horiz-adv-x="509" 
d="M260 1005q63 0 101 -37q39 -38 39 -96t-39 -95q-40 -38 -101 -38q-59 0 -99 38q-40 37 -40 95t40 95q40 38 99 38zM260 266q63 0 101 -37q39 -37 39 -96q0 -57 -39 -95q-40 -38 -101 -38q-59 0 -99 38q-40 37 -40 95t40 95q40 38 99 38z" />
    <glyph glyph-name="semicolon" unicode=";" horiz-adv-x="528" 
d="M414 160q0 -23 -11 -56l-142 -391h-139l110 326q-35 16 -67 48q-31 31 -31 73q0 58 40 95q40 38 100 38t101 -38q39 -37 39 -95zM264 1000q63 0 101 -37q38 -38 38 -96q0 -57 -38 -95q-40 -38 -101 -38q-60 0 -100 38q-40 37 -40 95t40 95q40 38 100 38z" />
    <glyph glyph-name="less" unicode="&#x3c;" horiz-adv-x="1141" 
d="M59 709l924 565v-195l-634 -382l634 -378v-195l-924 553v32z" />
    <glyph glyph-name="equal" unicode="=" horiz-adv-x="1339" 
d="M1187 842h-1033v161h1033v-161zM1187 392h-1033v161h1033v-161z" />
    <glyph glyph-name="greater" unicode="&#x3e;" horiz-adv-x="1141" 
d="M158 1079v195l925 -565v-32l-925 -553v195l635 378z" />
    <glyph glyph-name="question" unicode="?" horiz-adv-x="1107" 
d="M512 266q63 0 101 -37q39 -37 39 -96q0 -57 -39 -95q-40 -38 -101 -38q-59 0 -99 38q-40 37 -40 95t40 95q40 38 99 38zM608 393h-183v46q0 99 35 165q21 41 36 63t45 50q39 37 100 85q80 59 128 115q58 68 58 174q0 118 -80.5 190t-209.5 72q-122 0 -208 -77t-94 -191
h-172q5 126 73 231.5t173 152.5t228 47q133 0 238 -50.5t168 -147.5q63 -98 63 -227q0 -112 -45 -200q-33 -63 -110 -130q-20 -18 -66 -52q-8 -6 -22 -17.5t-18.5 -15t-14 -11.5t-14.5 -13t-13.5 -13t-17.5 -18q-28 -29 -41 -51.5t-24 -58.5q-12 -34 -12 -73v-45z" />
    <glyph glyph-name="at" unicode="@" horiz-adv-x="1958" 
d="M974 1495q260 0 462.5 -99t315.5 -279q112 -179 112 -410q0 -181 -92.5 -296.5t-238.5 -115.5q-84 0 -149 40.5t-95 109.5q-57 -81 -147.5 -126t-198.5 -45q-187 0 -310.5 119.5t-123.5 299.5q0 181 123.5 300t310.5 119q97 0 166.5 -37.5t130.5 -112.5v108h143v-486
q0 -75 43 -122t112 -47q87 0 140.5 81t53.5 211q0 195 -94.5 347t-266.5 237q-171 84 -393 84q-220 0 -392.5 -86t-269.5 -241t-97 -354q0 -196 90.5 -348t255.5 -236t378 -84q201 0 347 81v-124q-168 -79 -363 -79q-243 0 -434 99.5t-299 280.5q-107 179 -107 410
q0 175 64.5 324.5t182.5 255.5q117 105 282 163t358 58zM954 407q129 0 213 81t84 206t-84 205.5t-213 80.5q-128 0 -213 -82t-85 -204q0 -124 84.5 -205.5t213.5 -81.5z" />
    <glyph glyph-name="A" unicode="A" horiz-adv-x="1359" 
d="M969 388h-583l-138 -388h-207l538 1495h206l533 -1495h-212zM924 573l-246 672l-251 -671z" />
    <glyph glyph-name="B" unicode="B" horiz-adv-x="1502" 
d="M1379 418q0 -119 -59 -214q-60 -96 -164 -150t-233 -54h-749v1495h747q128 0 231 -53q102 -54 159 -148t57 -213q0 -103 -47 -189q-46 -85 -131 -141q87 -52 139 -140q50 -89 50 -193zM378 1305v-459h543q69 0 124 30q56 30 87 82t31 117q0 67 -31 119t-87 82
q-56 29 -124 29h-543zM1174 424q0 66 -32 119q-31 52 -88 84q-55 30 -127 30h-549v-467h549q70 0 126 31q58 30 89 84q32 53 32 119z" />
    <glyph glyph-name="C" unicode="C" horiz-adv-x="1619" 
d="M901 1518q205 0 370 -82q166 -83 269 -228l-163 -119q-76 112 -199 175q-124 63 -277 63q-171 0 -306 -75q-135 -77 -210 -208q-75 -133 -75 -299q0 -162 75 -294t210 -207q134 -76 306 -76q153 0 277 64q122 62 199 176l163 -119q-103 -146 -269 -229q-168 -83 -370 -83
q-227 0 -409 101q-181 100 -284 275t-103 392q0 220 103 396q103 177 284 277t409 100z" />
    <glyph glyph-name="D" unicode="D" horiz-adv-x="1551" 
d="M1445 748q0 -209 -101 -381q-102 -171 -281 -269t-403 -98h-486v1495h486q224 0 403 -98t281 -269q101 -172 101 -380zM378 190h278q168 0 301 73q132 73 209 201q75 128 75 284q0 157 -75 284q-76 127 -209 200t-301 73h-278v-1115z" />
    <glyph glyph-name="E" unicode="E" horiz-adv-x="1475" 
d="M174 1495h1178v-190h-974v-459h679v-191h-679v-465h974v-190h-1178v1495z" />
    <glyph glyph-name="F" unicode="F" horiz-adv-x="1434" 
d="M174 1495h1178v-190h-974v-459h680v-191h-680v-655h-204v1495z" />
    <glyph glyph-name="G" unicode="G" horiz-adv-x="1759" 
d="M1664 717q0 -212 -96 -380q-98 -170 -272 -264q-176 -96 -399 -96q-231 0 -410 100q-180 99 -281 275t-101 396t103 395q103 174 285 275q181 100 412 100q225 0 403 -97q179 -98 280 -266l-173 -101q-76 127 -208 200q-133 73 -302 73q-171 0 -308 -75
q-136 -76 -211 -208q-76 -131 -76 -296q0 -168 74 -301t207 -207q134 -74 308 -74q139 0 249 46q110 45 186 128q75 82 111 195h-540v182h759z" />
    <glyph glyph-name="H" unicode="H" horiz-adv-x="1553" 
d="M174 1495h204v-649h796v649h205v-1495h-205v657h-796v-657h-204v1495z" />
    <glyph glyph-name="I" unicode="I" horiz-adv-x="552" 
d="M174 1495h204v-1495h-204v1495z" />
    <glyph glyph-name="J" unicode="J" horiz-adv-x="1233" 
d="M1069 1495v-1042q0 -133 -65 -242q-64 -109 -182 -171q-118 -63 -270 -63q-148 0 -262 60q-113 59 -181 155q-68 95 -68 307h202q-1 -130 39 -194q38 -63 110 -100q70 -37 160 -37q91 0 162 38t111 103q39 65 39 146v1040h205z" />
    <glyph glyph-name="K" unicode="K" horiz-adv-x="1327" 
d="M1028 0l-650 714v-714h-204v1495h204v-698l646 698h256l-687 -737l695 -758h-260z" />
    <glyph glyph-name="L" unicode="L" horiz-adv-x="1434" 
d="M174 1495h204v-1305h974v-190h-1178v1495z" />
    <glyph glyph-name="M" unicode="M" horiz-adv-x="1761" 
d="M174 1495h202l506 -1071l501 1071h204v-1495h-204v1053l-501 -1053l-506 1051v-1051h-202v1495z" />
    <glyph glyph-name="N" unicode="N" horiz-adv-x="1561" 
d="M1387 1495v-1495h-205l-804 1159v-1159h-204v1495h204l804 -1159v1159h205z" />
    <glyph glyph-name="O" unicode="O" horiz-adv-x="1820" 
d="M909 1518q231 0 415 -99q184 -100 287 -275t103 -396t-103 -396q-104 -177 -287 -275q-184 -100 -415 -100q-232 0 -414 100q-182 98 -286 275q-104 176 -104 396t104 396q103 174 286 275q183 99 414 99zM909 168q175 0 311 75q138 76 214 208q76 131 76 297t-76 297
t-214 207q-136 75 -311 75q-173 0 -310 -75t-213 -207q-76 -131 -76 -297t76 -297q76 -133 213 -208t310 -75z" />
    <glyph glyph-name="P" unicode="P" horiz-adv-x="1436" 
d="M1346 985q0 -93 -69 -209q-70 -117 -194 -181q-125 -66 -285 -66h-420v-529h-204v1495h624q160 0 285 -65q125 -66 194 -182q69 -117 69 -263zM1141 985q0 92 -43 165q-44 74 -120 114q-77 41 -176 41h-424v-587h424q100 0 176 42q76 40 120 114q43 73 43 111z" />
    <glyph glyph-name="Q" unicode="Q" horiz-adv-x="1830" 
d="M1792 152l-138 -152l-205 160q-106 -88 -244 -135q-138 -48 -296 -48q-232 0 -414 100q-182 98 -286 275q-104 176 -104 396t104 396q103 174 286 275q183 99 414 99t415 -99q184 -100 287 -275t103 -396q0 -125 -34 -234q-34 -112 -97 -206zM1288 287l-247 193l131 151
l252 -197q86 139 86 314q0 166 -76 297t-214 207q-136 75 -311 75q-173 0 -310 -75t-213 -207q-76 -131 -76 -297t76 -297q76 -133 213 -208t310 -75q113 0 207 31q96 30 172 88z" />
    <glyph glyph-name="R" unicode="R" horiz-adv-x="1465" 
d="M781 533h-403v-533h-204v1495h622q158 0 280 -64q123 -65 192 -178q68 -115 68 -260q0 -107 -40 -180q-39 -72 -115 -142q-75 -68 -175 -102l359 -569h-243zM378 723h420q98 0 174 40q76 39 117 91q42 52 42 141q0 91 -41 162q-42 70 -117 109t-173 39h-422v-582z" />
    <glyph glyph-name="S" unicode="S" horiz-adv-x="1309" 
d="M647 1331q-93 0 -168 -32q-73 -33 -112 -90q-40 -56 -40 -128q0 -69 40 -121q41 -54 113 -77q40 -14 81 -20q44 -6 118 -12q79 -7 124 -13q53 -8 102 -21q142 -42 219 -139q78 -97 78 -238q0 -133 -67 -237q-67 -105 -191 -166q-124 -60 -286 -60q-157 0 -282 58
q-126 57 -197 161q-72 104 -72 236h205q0 -79 46 -140q44 -60 125 -94q78 -34 180 -34q103 0 178 34q78 34 118 93q41 61 41 137t-41 128q-42 51 -116 77q-41 14 -85 21q-31 4 -125 13q-77 7 -121 13q-57 8 -97 20q-141 42 -216 140q-76 97 -76 231q0 127 66 229
q66 101 186 160q117 58 272 58q153 0 273 -55t190 -155q68 -98 70 -225h-206q-3 74 -45 131q-42 56 -115 87q-74 30 -167 30z" />
    <glyph glyph-name="T" unicode="T" horiz-adv-x="1314" 
d="M554 1305h-488v190h1181v-190h-488v-1305h-205v1305z" />
    <glyph glyph-name="U" unicode="U" horiz-adv-x="1520" 
d="M1357 539q0 -158 -77 -286q-78 -128 -213 -202q-137 -74 -304 -74q-172 0 -309 74q-136 73 -213 202q-77 128 -77 286v956h204v-950q0 -105 51 -190q50 -88 141 -137q91 -50 201 -50q111 0 202 50q90 49 141 137q51 85 51 190v950h202v-956z" />
    <glyph glyph-name="V" unicode="V" horiz-adv-x="1338" 
d="M1297 1495l-527 -1495h-202l-527 1495h213l417 -1191l417 1191h209z" />
    <glyph glyph-name="W" unicode="W" horiz-adv-x="2086" 
d="M1832 1495h209l-465 -1495h-208l-326 1096l-328 -1096h-209l-460 1495h213l356 -1177l369 1177h123l366 -1174z" />
    <glyph glyph-name="X" unicode="X" horiz-adv-x="1413" 
d="M708 606l-441 -606h-237l549 750l-540 745h236l435 -596l435 596h234l-542 -739l550 -756h-238z" />
    <glyph glyph-name="Y" unicode="Y" horiz-adv-x="1372" 
d="M585 512l-557 983h226l434 -768l437 768h219l-554 -981v-514h-205v512z" />
    <glyph glyph-name="Z" unicode="Z" horiz-adv-x="1463" 
d="M123 0v178l956 1127h-956v190h1217v-178l-957 -1127h957v-190h-1217z" />
    <glyph glyph-name="bracketleft" unicode="[" horiz-adv-x="720" 
d="M668 -283h-462v1904h458v-148h-288v-1605h292v-151z" />
    <glyph glyph-name="backslash" unicode="\" horiz-adv-x="932" 
d="M249 1559l629 -1699h-193l-627 1699h191z" />
    <glyph glyph-name="bracketright" unicode="]" horiz-adv-x="720" 
d="M515 1621v-1904h-464v151h292v1605h-287v148h459z" />
    <glyph glyph-name="asciicircum" unicode="^" horiz-adv-x="1146" 
d="M277 694h-207l489 744h32l484 -744h-207l-295 455z" />
    <glyph glyph-name="underscore" unicode="_" horiz-adv-x="1109" 
d="M1110 -266h-1110v167h1110v-167z" />
    <glyph glyph-name="a" unicode="a" horiz-adv-x="1122" 
d="M968 678v-678h-190v97q-54 -57 -132 -89q-77 -31 -178 -31q-111 0 -194 40q-84 41 -129 112q-46 70 -46 164q0 139 99 220t276 97l304 28v36q0 56 -31 102q-32 47 -85 72q-55 26 -120 26q-119 0 -183 -35q-63 -35 -48 -166h-186q-12 154 54 224q64 68 157 114
q93 44 206 44q124 0 221 -49q98 -50 151 -134q54 -86 54 -194zM778 365v121l-281 -27q-103 -10 -153 -53q-51 -42 -51 -111q0 -45 24 -79q25 -37 70 -56q46 -21 110 -21q84 0 147 31q65 30 99 82q35 52 35 113z" />
    <glyph glyph-name="b" unicode="b" horiz-adv-x="1352" 
d="M1264 516q0 -150 -69 -273q-71 -125 -194 -195q-125 -71 -281 -71q-109 0 -202 37q-95 38 -163 104v-118h-193v1561h193v-649q69 69 162 106q92 37 203 37q156 0 281 -71q123 -69 194 -194q69 -125 69 -274zM1071 516q0 103 -46 185q-47 81 -128 127q-82 46 -189 46
q-105 0 -187 -46q-84 -47 -128 -127q-46 -82 -46 -185q0 -104 46 -184q44 -81 128 -128q82 -46 187 -46q107 0 189 46t128 128q46 80 46 184z" />
    <glyph glyph-name="c" unicode="c" horiz-adv-x="1163" 
d="M647 1055q144 0 261 -58q119 -59 191 -161l-153 -108q-49 69 -125 106q-79 38 -174 38q-107 0 -189 -45q-84 -48 -130 -127q-47 -83 -47 -184t47 -183q46 -81 130 -127q82 -46 189 -46q95 0 174 38q76 37 125 106l153 -107q-72 -102 -191 -161q-117 -59 -261 -59
q-159 0 -287 71t-200 194t-72 274t72 274t200 194t287 71z" />
    <glyph glyph-name="d" unicode="d" horiz-adv-x="1352" 
d="M1191 1561v-1561h-193v118q-69 -66 -164 -104q-93 -37 -202 -37q-155 0 -280 71q-123 70 -194 195q-70 122 -70 273q0 150 70 274q71 125 194 194q125 71 280 71q111 0 204 -37q91 -37 162 -106v649h193zM1006 516q0 102 -45 185q-47 81 -128 127q-82 46 -188 46
t-188 -46q-83 -47 -129 -127q-47 -83 -47 -185t47 -184q46 -81 129 -128q82 -46 188 -46t188 46t128 128q45 81 45 184z" />
    <glyph glyph-name="e" unicode="e" horiz-adv-x="1245" 
d="M1152 432h-861q17 -83 65 -142q47 -62 123 -97q75 -35 166 -35q96 0 175 40q77 40 127 111l159 -99q-76 -109 -195 -170q-120 -63 -266 -63q-160 0 -287 71q-128 70 -198 195q-72 123 -72 273t69 274q69 123 191 194t278 71q155 0 276 -70q120 -69 188 -194
q67 -122 67 -275q0 -46 -5 -84zM289 596h672q-14 85 -58 147q-46 62 -117 97q-69 34 -160 34q-94 0 -163 -34q-71 -35 -116 -96q-46 -62 -58 -148z" />
    <glyph glyph-name="f" unicode="f" horiz-adv-x="772" 
d="M254 858h-226v174h226v248q0 83 37 147q38 65 104 99q67 35 153 35h196v-175h-170q-58 0 -92 -33q-35 -35 -35 -89v-232h297v-174h-297v-858h-193v858z" />
    <glyph glyph-name="g" unicode="g" horiz-adv-x="1316" 
d="M1155 1032v-999q0 -139 -67 -251q-67 -111 -187 -176q-121 -63 -273 -63q-122 0 -237 48q-118 48 -189 148q-72 101 -72 201h182q28 -99 114 -159q84 -60 202 -60q95 0 172 41q75 41 119 114q42 72 42 161v119q-65 -62 -156 -97q-89 -34 -194 -34q-148 0 -267 68
q-121 68 -188 186q-68 118 -68 260t68 261q67 117 188 187q119 68 267 68q101 0 194 -35q91 -36 156 -100v112h194zM970 537q0 98 -43 174t-122 120q-77 43 -179 43q-100 0 -177 -43q-78 -43 -123 -120t-45 -174q0 -93 45 -170q44 -75 123 -119q77 -43 177 -43q102 0 179 43
q80 44 122 119q43 74 43 170z" />
    <glyph glyph-name="h" unicode="h" horiz-adv-x="1245" 
d="M1090 639v-639h-193v614q0 73 -33 133q-35 59 -95 93q-61 34 -143 34q-81 0 -142 -34q-62 -35 -95 -93q-34 -59 -34 -133v-614h-193v1561h193v-621q54 54 134 85q77 30 167 30q125 0 224 -54t155 -149q55 -94 55 -213z" />
    <glyph glyph-name="i" unicode="i" horiz-adv-x="536" 
d="M268 1538q62 0 100 -37q38 -38 38 -94q0 -55 -38 -93q-40 -38 -100 -38q-61 0 -99 38q-39 38 -39 93q0 57 39 94q37 37 99 37zM367 0h-193v1032h193v-1032z" />
    <glyph glyph-name="j" unicode="j" horiz-adv-x="544" 
d="M276 1535q62 0 100 -37q38 -38 38 -94q0 -55 -38 -93q-40 -38 -100 -38q-61 0 -99 38q-39 37 -39 93t39 94q37 37 99 37zM-60 -264h77q76 0 119 42q43 43 43 116v1138h195v-1169q0 -88 -39 -157q-42 -69 -112 -106q-73 -38 -165 -38h-118v174z" />
    <glyph glyph-name="k" unicode="k" horiz-adv-x="1082" 
d="M552 545l502 -545h-250l-449 495v-495h-193v1561h193v-968l449 439h250z" />
    <glyph glyph-name="l" unicode="l" horiz-adv-x="517" 
d="M162 1561h193v-1561h-193v1561z" />
    <glyph glyph-name="m" unicode="m" horiz-adv-x="1875" 
d="M1720 664v-664h-193v639q0 65 -30 119q-32 54 -86 85q-55 31 -129 31q-72 0 -127 -31q-57 -31 -88 -85q-31 -53 -31 -119v-639h-193v639q0 65 -30 119q-31 54 -85 85q-55 31 -128 31q-72 0 -127 -31t-87 -86q-31 -53 -31 -118v-639h-193v1032h187v-86q53 53 125 81
q71 28 158 28q103 0 187 -39q84 -41 139 -110q56 69 145 110q89 39 194 39q122 0 218 -51q95 -50 151 -140q54 -90 54 -200z" />
    <glyph glyph-name="n" unicode="n" horiz-adv-x="1243" 
d="M1088 641v-641h-193v614q0 74 -34 133q-35 59 -95 93q-61 34 -142 34q-79 0 -140 -34q-62 -35 -95 -93q-34 -59 -34 -133v-614h-193v1032h193v-91q55 54 134 84q77 30 167 30q124 0 223 -54q99 -55 154 -148q55 -94 55 -212z" />
    <glyph glyph-name="o" unicode="o" horiz-adv-x="1303" 
d="M652 1055q161 0 289 -71q127 -72 201 -195q73 -124 73 -273q0 -150 -73 -272q-74 -124 -201 -195q-127 -72 -289 -72t-289 72q-128 70 -202 195q-73 122 -73 272q0 149 73 273q74 123 202 195q128 71 289 71zM652 160q109 0 192 46q85 46 131 127q47 82 47 183t-47 184
q-46 80 -131 127q-84 45 -192 45t-192 -45q-86 -47 -132 -127q-47 -82 -47 -184t47 -184q46 -81 132 -126q83 -46 192 -46z" />
    <glyph glyph-name="p" unicode="p" horiz-adv-x="1352" 
d="M1264 516q0 -150 -69 -273q-71 -125 -194 -195q-125 -71 -281 -71q-109 0 -202 37q-95 38 -163 104v-552h-193v1466h193v-120q69 69 162 106q92 37 203 37q156 0 281 -71q123 -69 194 -194q69 -125 69 -274zM1071 516q0 103 -46 185q-47 81 -128 127q-82 46 -189 46
q-105 0 -187 -46q-84 -47 -128 -127q-46 -82 -46 -185q0 -104 46 -184q44 -81 128 -128q82 -46 187 -46q107 0 189 46t128 128q46 80 46 184z" />
    <glyph glyph-name="q" unicode="q" horiz-adv-x="1352" 
d="M1191 1032v-1466h-193v552q-69 -66 -164 -104q-93 -37 -202 -37q-155 0 -280 71q-123 70 -194 195q-70 122 -70 273q0 150 70 274q71 125 194 194q125 71 280 71q111 0 204 -37q91 -37 162 -106v120h193zM1006 516q0 102 -45 185q-47 81 -128 127q-82 46 -188 46
t-188 -46q-83 -47 -129 -127q-47 -83 -47 -185t47 -184q46 -81 129 -128q82 -46 188 -46t188 46t128 128q45 81 45 184z" />
    <glyph glyph-name="r" unicode="r" horiz-adv-x="817" 
d="M770 1034v-182h-148q-79 0 -140 -34q-59 -33 -94 -79q-33 -45 -33 -147v-592h-193v1032h191v-123q48 60 122 93q75 32 163 32h132z" />
    <glyph glyph-name="s" unicode="s" horiz-adv-x="998" 
d="M503 154q46 0 88 11q36 10 67 31q27 19 43 47q15 27 15 60q0 35 -13 58q-13 22 -43 39q-27 14 -75 25q-40 8 -114 16q-41 5 -68 9q-33 3 -48 7q-129 26 -189 98q-63 73 -63 179q0 71 31 129q30 59 84 102q52 41 127 66q73 24 159 24q83 0 155 -24q72 -26 124 -67
q53 -44 82 -101q30 -59 30 -128h-198q0 32 -14 60q-15 25 -41 45q-25 18 -64 29q-36 10 -81 10q-46 0 -82 -10q-37 -11 -63 -30q-27 -21 -40 -45q-15 -27 -15 -59q0 -50 28 -72q30 -25 77 -35q48 -12 114 -18q81 -9 142 -20q123 -22 188 -98q63 -75 63 -184q0 -73 -31 -134
t-86 -104q-57 -45 -131 -68q-75 -25 -167 -25q-90 0 -161 26q-75 26 -128 70q-54 43 -84 105q-31 61 -31 133h198q0 -37 15 -65q15 -30 44 -50q31 -22 68 -31q42 -11 88 -11z" />
    <glyph glyph-name="t" unicode="t" horiz-adv-x="833" 
d="M385 1032h348v-174h-348v-526q0 -73 43 -115q43 -43 120 -43h185v-174h-226q-92 0 -165 38q-72 37 -111 107q-40 67 -40 156v557h-148v174h148v199h194v-199z" />
    <glyph glyph-name="u" unicode="u" horiz-adv-x="1239" 
d="M1077 1032v-1032h-193v94q-56 -56 -133 -86q-77 -31 -168 -31q-123 0 -220 54q-97 53 -153 147t-56 207v647h195v-620q0 -70 33 -129q32 -57 95 -91q61 -34 140 -34q78 0 139 34q60 34 95 93q33 58 33 131v616h193z" />
    <glyph glyph-name="v" unicode="v" horiz-adv-x="1094" 
d="M1061 1032l-420 -1032h-187l-419 1032h208l305 -765l308 765h205z" />
    <glyph glyph-name="w" unicode="w" horiz-adv-x="1632" 
d="M1589 1032l-359 -1032h-196l-220 654l-221 -654h-191l-359 1032h205l253 -752l254 752h125l249 -738l258 738h202z" />
    <glyph glyph-name="x" unicode="x" horiz-adv-x="1137" 
d="M866 0l-299 393l-300 -393h-224l400 520l-387 512h225l289 -381l288 381h224l-387 -508l397 -524h-226z" />
    <glyph glyph-name="y" unicode="y" horiz-adv-x="1104" 
d="M1069 1032l-598 -1466h-206l182 450l-412 1016h210l306 -761l309 761h209z" />
    <glyph glyph-name="z" unicode="z" horiz-adv-x="1166" 
d="M101 0v168l701 690h-701v174h964v-168l-702 -690h702v-174h-964z" />
    <glyph glyph-name="braceleft" unicode="{" horiz-adv-x="746" 
d="M566 -122l126 1v-154h-189q-114 0 -195 76.5t-81 186.5v490q0 48 -36 81.5t-86 33.5h-33v146h33q51 0 86.5 33.5t35.5 82.5v489q0 109 81 185t195 76h186v-153h-123q-68 0 -113.5 -43t-45.5 -108v-437q0 -66 -35 -120t-91 -78q55 -24 90.5 -78t35.5 -119v-440
q0 -63 46 -107t113 -44z" />
    <glyph glyph-name="bar" unicode="|" horiz-adv-x="583" 
d="M377 -389h-171v2109h171v-2109z" />
    <glyph glyph-name="braceright" unicode="}" horiz-adv-x="746" 
d="M642 739h32v-146h-32q-52 0 -87 -33.5t-35 -81.5v-490q0 -110 -81 -186.5t-195 -76.5h-189v153h126q67 0 112.5 44t45.5 107v440q0 65 35.5 119t90.5 78q-55 24 -90.5 78t-35.5 120v437q0 65 -45.5 108t-112.5 43h-123v153h186q114 0 195 -76t81 -185v-489
q0 -49 35 -82.5t87 -33.5z" />
    <glyph glyph-name="asciitilde" unicode="~" horiz-adv-x="1242" 
d="M838 484q-72 0 -132.5 28t-138.5 96q-51 48 -81 65t-62 17q-62 0 -100.5 -47.5t-38.5 -123.5v-29h-133v35q0 145 73.5 231t196.5 86q76 0 136 -28.5t131 -97.5q50 -48 80.5 -65t65.5 -17q62 0 99 45t37 121v31h133v-33q0 -145 -71.5 -229.5t-194.5 -84.5z" />
    <glyph glyph-name="cent" unicode="&#xa2;" horiz-adv-x="1283" 
d="M744 146q98 16 174 72.5t118 145.5l175 -4q-47 -156 -171 -257.5t-292 -120.5v-163h-148v163q-218 24 -359.5 177.5t-141.5 368.5q0 217 141 369.5t360 175.5v174h148v-174q169 -19 293 -119.5t169 -255.5h-176q-40 86 -115.5 140.5t-174.5 70.5v-763zM602 909
q-144 -23 -235.5 -128.5t-91.5 -252.5q0 -144 91 -250t231 -131z" />
    <glyph glyph-name="sterling" unicode="&#xa3;" horiz-adv-x="1281" 
d="M1020 148v243h162v-391h-1082v122l150 23v436h-128v146h128v260q0 182 126 298t321 116q190 0 310.5 -113.5t120.5 -291.5v-19h-163v10q0 108 -77 180.5t-191 72.5q-117 0 -193.5 -74.5t-76.5 -188.5v-250h390v-146h-390v-433h593z" />
    <glyph glyph-name="yen" unicode="&#xa5;" horiz-adv-x="1369" 
d="M1304 1362l-529 -753v-48h412v-114h-412v-133h412v-113h-412v-201h-181v201h-412v113h412v133h-412v114h412v46l-526 755h189l426 -615l430 615h191z" />
    <glyph glyph-name="copyright" unicode="&#xa9;" horiz-adv-x="1804" 
d="M900 -22q-229 0 -410.5 93.5t-282.5 262.5q-102 168 -102 381q0 212 101 381t283 263q182 93 411 93t412.5 -94t285.5 -262q102 -170 102 -381t-102 -380t-285 -263q-182 -94 -413 -94zM900 88q144 0 270.5 46t216.5 129t140.5 200.5t50.5 251.5q0 181 -86 324.5
t-241 222.5t-351 79t-349.5 -79t-239.5 -222q-86 -141 -86 -325q0 -182 86 -325t240 -222.5t349 -79.5zM906 347q-113 0 -204 48.5t-141 135.5q-51 87 -51 196q0 108 51 194t143 136q86 48 202 48q137 0 235 -63.5t132 -180.5h-100q-29 77 -99 115.5t-168 38.5
q-130 0 -213.5 -81t-83.5 -207q0 -127 83.5 -208.5t213.5 -81.5q100 0 171 42.5t101 125.5h98q-32 -123 -131 -190.5t-239 -67.5z" />
    <glyph glyph-name="guillemotleft" unicode="&#xab;" horiz-adv-x="1285" 
d="M660 120h-216l-361 413v28l361 413h216l-369 -427zM1176 120h-216l-361 413v28l361 413h216l-370 -427z" />
    <glyph glyph-name="uni00AD" unicode="&#xad;" 
d="M831 488h-683v168h683v-168z" />
    <glyph glyph-name="registered" unicode="&#xae;" horiz-adv-x="1019" 
d="M221 1341q119 113 290 113t290 -113t119 -276t-119 -277t-290 -114q-170 0 -290 114.5t-120 276.5q0 163 120 276zM275 841q98 -92 236 -92q139 0 235.5 92t96.5 224q0 130 -97 222t-235 92q-139 0 -236.5 -91.5t-97.5 -222.5q0 -132 98 -224zM696 845h-71l-99 171h-106
v-171h-58v440h176q65 0 107.5 -38.5t42.5 -97.5q0 -45 -27.5 -79t-74.5 -47zM533 1232h-113v-163h113q43 0 69.5 22.5t26.5 58.5t-26.5 59t-69.5 23z" />
    <glyph glyph-name="guillemotright" unicode="&#xbb;" horiz-adv-x="1285" 
d="M687 533l-361 -413h-218l371 427l-371 427h218l361 -413v-28zM1202 533l-361 -413h-217l370 427l-370 427h217l361 -413v-28z" />
    <glyph glyph-name="uni2010" unicode="&#x2010;" 
d="M831 488h-683v168h683v-168z" />
    <glyph glyph-name="uni2011" unicode="&#x2011;" 
d="M831 488h-683v168h683v-168z" />
    <glyph glyph-name="figuredash" unicode="&#x2012;" 
d="M831 488h-683v168h683v-168z" />
    <glyph glyph-name="endash" unicode="&#x2013;" horiz-adv-x="1376" 
d="M1229 488h-1081v168h1081v-168z" />
    <glyph glyph-name="emdash" unicode="&#x2014;" horiz-adv-x="1929" 
d="M1780 488h-1632v168h1632v-168z" />
    <glyph glyph-name="quoteleft" unicode="&#x2018;" horiz-adv-x="483" 
d="M87 1101q0 23 11 56l141 391h140l-110 -326q35 -16 67 -48q30 -32 30 -73q0 -57 -39 -95q-40 -38 -100 -38t-100 38q-40 37 -40 95z" />
    <glyph glyph-name="quoteright" unicode="&#x2019;" horiz-adv-x="470" 
d="M379 1101q0 -57 -39 -95q-41 -38 -101 -38q-59 0 -99 38q-40 37 -40 95q0 42 31 73q31 32 66 48l-110 326h140l142 -391q10 -30 10 -56z" />
    <glyph glyph-name="quotesinglbase" unicode="&#x201a;" horiz-adv-x="518" 
d="M423 160q0 -26 -10 -56l-142 -391h-140l111 326q-35 16 -67 48q-31 31 -31 73q0 58 40 95q40 38 100 38q59 0 100 -38q39 -37 39 -95z" />
    <glyph glyph-name="quotedblleft" unicode="&#x201c;" horiz-adv-x="854" 
d="M443 1114q0 23 11 56l141 391h140l-110 -326q35 -17 66 -48t31 -73q0 -58 -39 -95q-40 -38 -100 -38t-100 38q-40 37 -40 95zM119 1114q0 26 10 56l142 391h140l-111 -326q35 -16 67 -48q31 -31 31 -73q0 -58 -39 -95q-41 -38 -101 -38t-100 38q-39 37 -39 95z" />
    <glyph glyph-name="quotedblright" unicode="&#x201d;" horiz-adv-x="840" 
d="M411 1114q0 -58 -39 -95q-41 -38 -101 -38t-100 38q-40 37 -40 95q0 42 31 73q32 32 67 48l-110 326h139l142 -391q11 -33 11 -56zM735 1114q0 -58 -39 -95q-41 -38 -101 -38t-100 38q-39 37 -39 95q0 42 31 73t66 48l-110 326h140l142 -391q10 -30 10 -56z" />
    <glyph glyph-name="quotedblbase" unicode="&#x201e;" horiz-adv-x="887" 
d="M423 160q0 -26 -10 -56l-142 -391h-140l111 326q-35 16 -67 48q-31 31 -31 73q0 58 40 95q40 38 100 38q59 0 100 -38q39 -37 39 -95zM748 160q0 -23 -11 -56l-142 -391h-139l110 326q-35 16 -67 48q-31 31 -31 73q0 58 40 95q40 38 100 38t101 -38q39 -37 39 -95z" />
    <glyph glyph-name="ellipsis" unicode="&#x2026;" horiz-adv-x="1191" 
d="M249 266q63 0 101 -37q39 -37 39 -96q0 -57 -39 -95q-40 -38 -101 -38q-60 0 -100 38q-40 37 -40 95t40 95q40 38 100 38zM595 266q63 0 101 -37q39 -37 39 -96q0 -57 -39 -95q-40 -38 -101 -38q-60 0 -100 38q-39 37 -39 95q0 57 39 95q40 38 100 38zM942 266
q63 0 101 -37q39 -37 39 -96q0 -57 -39 -95q-40 -38 -101 -38q-60 0 -100 38q-40 37 -40 95t40 95q40 38 100 38z" />
    <glyph glyph-name="guilsinglleft" unicode="&#x2039;" horiz-adv-x="770" 
d="M660 120h-216l-361 413v28l361 413h216l-369 -427z" />
    <glyph glyph-name="guilsinglright" unicode="&#x203a;" horiz-adv-x="770" 
d="M687 533l-361 -413h-218l371 427l-371 427h218l361 -413v-28z" />
    <glyph glyph-name="Euro" unicode="&#x20ac;" horiz-adv-x="1393" 
d="M1020 1243q-177 0 -320.5 -85.5t-213.5 -233.5h719v-146h-763q-6 -45 -6 -92q0 -58 7 -100h761v-146h-714q70 -144 212.5 -227.5t314.5 -83.5q120 0 234 41v-156q-120 -40 -257 -40q-238 0 -429 127t-267 339h-227l3 142l189 4q-7 45 -7 100q0 37 5 92h-183v146h216
q73 217 266.5 346t439.5 129q90 0 149.5 -9t132.5 -38v-159q-124 50 -262 50z" />
    <glyph glyph-name="trademark" unicode="&#x2122;" horiz-adv-x="1853" 
d="M740 1434v-113h-263v-643h-128v643h-283v113h674zM1589 1434l131 -756h-124l-100 564l-281 -564h-28l-281 564l-102 -564h-124l135 756h112l273 -556l274 556h115z" />
    <glyph glyph-name="_142" horiz-adv-x="1260" 
d="M78 1013v129h1107v-129h-1107zM1041 766q0 24 -29 47t-68 23q-35 0 -63.5 -16.5t-28.5 -37.5q0 -31 16.5 -49t68.5 -29l47 -10q43 -9 66 -15t52.5 -17t43.5 -24t25 -34t12 -48q2 -74 -64 -119.5t-172 -45.5q-120 0 -183 60t-63 138l128 -2q0 -8 4.5 -20.5t16 -29t38 -28
t62.5 -11.5q43 0 70 15t27 35q0 40 -104 63q-100 21 -164 57q-64 35 -64 111q0 73 65.5 119t166.5 46q104 0 165.5 -53.5t61.5 -124.5h-133zM224 818v-125h267v-123h-267v-179h-145v550h464v-123h-319zM530 458q0 -26 20.5 -45t48.5 -19q30 0 51 18.5t21 45.5
q0 26 -21.5 45.5t-50.5 19.5q-28 0 -48.5 -19.5t-20.5 -45.5zM75 193v129h1107v-129h-1107z" />
    </font>
</defs>
</svg>
