<svg width="80" height="80" viewBox="0 0 80 80" fill="none" xmlns="http://www.w3.org/2000/svg">
<g clip-path="url(#clip0)">
<path d="M68.2574 67.5403C73.8184 61.4575 77.4432 53.5747 78.1521 44.8659L54.4973 6.28016C50.0254 4.44891 45.1313 3.43687 40.0001 3.43687C18.8577 3.43687 1.71851 20.5761 1.71851 41.7184C1.71851 51.6692 5.51601 60.7325 11.7399 67.5403H68.2574Z" fill="#9181F2"/>
<path d="M13.5037 67.3841L24.4309 76.6983C27.4896 78.0619 30.7601 79.0352 34.1794 79.5571L47.8998 79.181C55.9558 77.4903 63.081 73.2692 68.4023 67.3841H13.5037Z" fill="#3C58A0"/>
<path d="M56.0602 67.3841H13.5037L24.4308 76.6983C27.4896 78.0619 30.7601 79.0352 34.1794 79.5571L47.8998 79.181C49.798 78.7825 51.6437 78.2421 53.4271 77.5741C50.1468 74.6127 51.3249 68.4388 56.0602 67.3841Z" fill="#2A428C"/>
<path d="M54.2887 6.195H41.3715C39.3371 6.195 37.6821 7.85016 37.6821 9.88437V20.4314H42.2392C46.1812 20.4314 49.3882 23.6384 49.3882 27.5805V40.448C49.5971 40.373 50.1909 39.992 51.1553 39.992C53.0965 39.992 54.6757 41.5713 54.6757 43.5125V45.0913H78.0292C78.0637 45.0913 78.0979 45.0895 78.1323 45.0886C78.2292 43.9778 78.2817 42.8542 78.2817 41.7184C78.2817 25.6277 68.3531 11.8575 54.2887 6.195Z" fill="#E9EFFF"/>
<path d="M41.3715 6.195C39.3371 6.195 37.6821 7.85016 37.6821 9.88437V20.4314H42.2392C46.1812 20.4314 49.3882 23.6384 49.3882 27.5805V40.448C49.5971 40.373 50.1909 39.992 51.1553 39.992C51.3757 39.992 51.591 40.0134 51.8004 40.0523C51.1717 39.1855 51.2196 37.9955 51.2271 37.8636C51.2278 37.8539 51.2279 37.8456 51.2279 37.8359V11.783C51.2279 10.7089 51.7543 10.0319 52.1689 9.66531C52.3857 9.47359 52.4059 9.14031 52.2104 8.92687C51.1845 7.80609 52.1709 6.66438 52.5364 6.30813C52.5709 6.27453 52.599 6.23609 52.6226 6.19516H41.3715V6.195Z" fill="#BEC8F7"/>
<path d="M60.3968 9.32H41.3715C41.0656 9.32 40.8071 9.57844 40.8071 9.88437V20.4314H42.2392C46.1812 20.4314 49.3882 23.6384 49.3882 27.5805V40.448C49.5971 40.373 50.1909 39.992 51.1553 39.992C52.542 39.992 53.7435 40.7981 54.3171 41.9663H78.0293C78.119 41.9663 78.2032 41.942 78.2795 41.903C78.2798 41.8413 78.2818 41.7802 78.2818 41.7184C78.2817 28.0742 71.1423 16.0992 60.3968 9.32Z" fill="#73C3F9"/>
<path d="M51.1553 39.992C51.2583 39.992 51.3597 39.9978 51.4605 40.0066C51.4819 40.0084 51.5032 40.0113 51.5244 40.0136C51.6075 40.0223 51.6896 40.0337 51.7708 40.0483C51.7805 40.05 51.7907 40.0506 51.8003 40.0525C51.1716 39.1856 51.2196 37.9956 51.2271 37.8638C51.2277 37.8541 51.2278 37.8458 51.2278 37.8361V11.783C51.2278 10.7089 51.7543 10.0319 52.1688 9.66531C52.2728 9.57328 52.3303 9.44844 52.3418 9.32H41.3718C41.0658 9.32 40.8074 9.57844 40.8074 9.88437V20.4314H42.2394C42.8553 20.4314 43.4533 20.5097 44.0239 20.6569C44.2522 20.7158 44.476 20.7856 44.6949 20.8659C44.9138 20.9463 45.1277 21.0369 45.336 21.1375C45.4402 21.1878 45.5428 21.2405 45.6443 21.2956C45.9482 21.4609 46.2388 21.6477 46.5141 21.8536C46.973 22.197 47.3894 22.5942 47.7539 23.0356C47.9727 23.3006 48.1727 23.5814 48.3521 23.8763C48.4716 24.0728 48.5819 24.2755 48.6825 24.4839C49.1349 25.4213 49.3886 26.4719 49.3886 27.5805V40.448C49.4278 40.4339 49.4805 40.4091 49.5466 40.378C49.7671 40.2745 50.1368 40.1019 50.6524 40.0277C50.8068 40.0055 50.9744 39.992 51.1553 39.992Z" fill="#4FABF7"/>
<path d="M73.9828 24.0806H48.4692C48.9953 25.0134 49.3194 26.0747 49.3781 27.2056H75.4317C74.9945 26.1391 74.5111 25.0964 73.9828 24.0806Z" fill="#E9EFFF"/>
<path d="M48.4692 24.0806C48.9953 25.0134 49.3194 26.0747 49.3781 27.2056H51.2275V24.0806H48.4692Z" fill="#BEC8F7"/>
<path d="M60.3968 9.31999L58.1379 9.0364V42.2266H61.2629V9.88202C60.977 9.69077 60.6881 9.50374 60.3968 9.31999Z" fill="#E9EFFF"/>
<path d="M11.1025 43.5125V56.0362L12.0122 53.57C12.7039 51.695 14.505 50.4355 16.4942 50.4355H42.4776C44.4667 50.4355 46.2678 51.695 46.9598 53.57L47.8695 56.0353V43.5125C47.8695 42.2542 48.5812 41.1601 49.6226 40.6084V27.5805C49.6226 23.5195 46.3001 20.197 42.2392 20.197H16.7328C12.6719 20.197 9.34937 23.5195 9.34937 27.5805V40.6084C10.3908 41.1603 11.1025 42.2544 11.1025 43.5125Z" fill="#38C674"/>
<path d="M11.1025 43.5125V56.0362L12.0122 53.57C12.7039 51.695 14.505 50.4355 16.4942 50.4355H38.598V26.4292C38.598 25.9242 39.0073 25.5148 39.5123 25.5148H41.3951C42.0051 25.5148 42.4325 24.9322 42.2728 24.3434C41.7205 22.3072 43.1103 21.11 44.0309 20.5612C44.0822 20.5308 44.1289 20.4958 44.1716 20.4572C43.5548 20.2887 42.9072 20.1972 42.2389 20.1972H16.7328C12.6719 20.1972 9.34937 23.5197 9.34937 27.5806V40.6086C10.3908 41.1603 11.1025 42.2544 11.1025 43.5125Z" fill="#1BA552"/>
<path d="M46.9313 42.6861C46.8132 41.1431 45.8496 38.9902 45.656 36.7531C45.4941 36.872 45.3072 36.9627 45.1008 37.015C41.985 37.8081 39.311 38.1416 39.1274 38.1722L39.1271 44.3523L39.1199 44.5923L39.3342 44.6161C39.9521 44.6845 40.418 45.2052 40.418 45.8269C40.418 46.4995 39.8708 47.0467 39.1982 47.0467H39.1292V47.1248H42.818C43.8941 47.1248 44.9275 46.7044 45.6978 45.9533C46.573 45.1003 47.0247 43.9045 46.9313 42.6861Z" fill="#FCAD6D"/>
<path d="M45.099 37.015C45.3053 36.9625 45.4922 36.872 45.654 36.7531C45.762 38 46.109 39.2205 46.4156 40.3241C45.2072 40.1317 42.1543 39.9369 39.8257 42.2656C39.5711 42.5203 39.3367 42.6922 39.1201 42.7969L39.1256 38.1723C39.2495 38.1516 42.0768 37.7842 45.099 37.015Z" fill="#FD995B"/>
<path d="M19.8573 47.0469H19.7737C19.101 47.0469 18.5537 46.4997 18.5537 45.827C18.5537 45.2053 19.0196 44.6848 19.6377 44.6163L19.8521 44.5925L19.8445 38.1723C19.7207 38.1516 16.8932 37.7844 13.8712 37.0151C13.6649 36.9626 13.478 36.8722 13.3162 36.7533C13.1224 38.9903 12.159 41.1433 12.0409 42.6862C11.9476 43.9047 12.3993 45.1005 13.2741 45.9536C14.0445 46.7048 15.0779 47.1252 16.154 47.1252H19.8574V47.0469H19.8573Z" fill="#FCAD6D"/>
<path d="M13.871 37.015C13.6648 36.9625 13.4779 36.872 13.316 36.7531C13.208 38 12.861 39.2205 12.5544 40.3241C13.763 40.1317 16.8157 39.9369 19.1443 42.2656C19.399 42.5203 19.6334 42.6922 19.8499 42.7969L19.8444 38.1723C19.7207 38.1516 16.8932 37.7842 13.871 37.015Z" fill="#FD995B"/>
<path d="M47.0275 67.8009C45.7659 68.2564 44.4069 68.5061 42.9903 68.5061H40.592L43.6786 79.8233C45.1122 79.6866 46.5228 79.4712 47.9059 79.1808L47.0275 67.8009Z" fill="#E55F51"/>
<path d="M45.7256 79.5714C45.515 78.0011 45.05 74.636 44.7172 72.9919C44.3789 71.3206 46.3264 70.9569 47.265 70.8783L47.0275 67.8011C45.7659 68.2566 44.4069 68.5063 42.9903 68.5063H40.592L43.6786 79.8234C44.3666 79.7577 45.0488 79.6728 45.7256 79.5714Z" fill="#D34E3C"/>
<path d="M11.9998 67.8197C13.7365 69.6819 15.6555 71.3716 17.7305 72.8581L19.1612 68.5061H15.9815C14.5855 68.5061 13.2458 68.2627 11.9998 67.8197Z" fill="#D34E3C"/>
<path d="M54.9101 43.5125C54.9101 41.442 53.2255 39.7577 51.1552 39.7577C49.0849 39.7577 47.4004 41.4422 47.4004 43.5125V57.0559C47.4004 59.4875 45.4221 61.4656 42.9905 61.4656H15.9818C13.5502 61.4656 11.5721 59.4875 11.5721 57.0559V43.5125C11.5721 41.442 9.88757 39.7577 7.81726 39.7577C5.74694 39.7577 4.06226 41.4422 4.06226 43.5125V57.0559C4.06226 63.6284 9.40929 68.9755 15.9818 68.9755H42.9904C49.5629 68.9755 54.9101 63.6284 54.9101 57.0559V43.5125Z" fill="#70F2A4"/>
<path d="M51.5684 65.3194C51.4337 65.1572 51.2437 65.0416 51.0232 65.0044C47.3563 64.3856 46.954 61.7209 47.0068 60.315C47.0187 60.0003 46.866 59.7211 46.6257 59.5483C45.8301 60.7053 44.4974 61.4658 42.9901 61.4658H15.9816C13.5501 61.4658 11.5719 59.4877 11.5719 57.0561V43.5125C11.5719 41.442 9.88741 39.7577 7.8171 39.7577C5.74663 39.7577 4.06226 41.4422 4.06226 43.5125V57.0559C4.06226 63.6284 9.40929 68.9755 15.9818 68.9755H42.9904C46.3563 68.9755 49.3987 67.5708 51.5684 65.3194Z" fill="#50DD89"/>
<path d="M15.9818 61.8177H42.9903C45.4377 61.8177 47.458 59.9613 47.7213 57.5831V55.2097C47.7213 52.3258 45.3618 49.9663 42.4778 49.9663H16.4944C13.6105 49.9663 11.251 52.3258 11.251 55.2097V57.5831C11.5144 59.9613 13.5346 61.8177 15.9818 61.8177Z" fill="#50DD89"/>
<path d="M15.9817 61.8177H42.9903C44.5907 61.8177 46.0084 61.0234 46.8717 59.8089C46.7306 59.5811 46.4912 59.4172 46.2064 59.3769C43.0515 58.9302 42.142 56.1825 41.9378 55.3534C41.8981 55.1926 41.8171 55.0458 41.701 54.9276L38.8609 52.0411C38.6926 51.87 38.5982 51.6397 38.5982 51.3998V49.9664H16.4942C13.6103 49.9664 11.2507 52.3259 11.2507 55.2098V57.5833C11.5143 59.9612 13.5345 61.8177 15.9817 61.8177Z" fill="#38C674"/>
<path d="M27.7073 27.7403C27.6854 27.6939 27.6404 27.6627 27.5893 27.6584C27.484 27.6509 27.4484 27.7417 27.4356 27.7548C27.1482 28.1711 26.5707 28.2813 26.1487 28C24.9312 27.1888 22.8232 25.4569 22.3826 22.9722C22.3374 22.717 22.4023 22.455 22.5603 22.2522C21.6929 22.5795 20.8557 22.9786 20.0264 23.4463C19.4373 23.7784 19.1714 23.9723 18.6715 24.0131C13.3859 24.4452 12.796 29.9739 12.7949 32.4098C12.7943 33.6848 12.5856 34.5294 12.4664 35.1433C12.2831 36.0877 12.8812 37.005 13.8134 37.2422C15.6849 37.7186 17.7068 38.112 19.8446 38.4095V31.9656C19.8446 31.4897 20.2304 31.1037 20.7065 31.1037H28.3753C28.3657 31.0028 28.4745 29.3678 27.7073 27.7403Z" fill="#73C3F9"/>
<path d="M23.3053 27.7981C23.0324 26.7097 23.9815 26.3384 23.9815 26.3384L24.0206 26.1659C23.267 25.3122 22.6074 24.2406 22.3826 22.9723C22.3374 22.7172 22.4023 22.4552 22.5603 22.2523C21.6929 22.5797 20.8557 22.9788 20.0264 23.4464C19.4373 23.7786 19.1714 23.9725 18.6715 24.0133C13.3859 24.4453 12.796 29.9741 12.7949 32.41C12.7943 33.685 12.5854 34.5295 12.4664 35.1434C12.2831 36.0878 12.8812 37.0052 13.8134 37.2423C15.6849 37.7187 17.7068 38.1122 19.8446 38.4097V31.9658C19.8446 31.4898 20.2304 31.1039 20.7065 31.1039H23.4265C23.4273 29.5005 23.3974 28.1664 23.3053 27.7981Z" fill="#4FABF7"/>
<path d="M46.5058 35.1428C46.194 33.5375 46.2044 33.5877 46.1736 32.0992C46.1205 29.5347 45.3724 24.428 40.3002 24.0133C39.8004 23.9725 39.5344 23.7784 38.9454 23.4464C38.116 22.9788 37.2788 22.5797 36.4115 22.2523C36.5694 22.4552 36.6343 22.7172 36.5891 22.9723C36.1485 25.4572 34.0405 27.1889 32.823 28.0002C32.4011 28.2812 31.8236 28.1714 31.5361 27.7552C31.5239 27.7433 31.4883 27.6511 31.3824 27.6588C31.3311 27.663 31.2861 27.6942 31.2643 27.7406C30.8708 28.5764 30.6566 29.6444 30.6572 29.9694C30.7219 30.5222 30.7149 31.0853 30.7154 31.1039H38.2657C38.7418 31.1039 39.1277 31.4898 39.1277 31.9659V38.4097C41.2655 38.1122 43.2872 37.7187 45.159 37.2423C46.0913 37.005 46.6893 36.0873 46.5058 35.1428Z" fill="#73C3F9"/>
<path d="M28.5712 25.8541C28.6105 25.8792 28.6346 25.9227 28.6355 25.97C28.6365 26.0147 28.658 26.0564 28.6941 26.0828C28.8226 26.177 29.0818 26.3884 29.3755 26.7458C29.4329 26.8156 29.5397 26.8156 29.5971 26.7459C29.8915 26.3881 30.1501 26.1772 30.2779 26.0833C30.3138 26.0567 30.3355 26.015 30.3363 25.9703C30.3371 25.9228 30.3613 25.8795 30.4007 25.8542C30.5952 25.6516 34.5849 23.7248 33.9932 21.1786C33.5233 20.3936 33.3874 19.2803 33.3591 18.458C32.9679 18.9137 32.5572 19.2948 32.1649 19.5995C31.4005 20.1931 30.4572 20.5155 29.4858 20.5155C28.5143 20.5155 27.571 20.1931 26.8066 19.5995C26.4143 19.2948 26.0037 18.9136 25.6124 18.458C25.5841 19.2806 25.448 20.3944 24.9779 21.1794C24.3802 23.7344 28.3572 25.6311 28.5712 25.8541Z" fill="#FCAD6D"/>
<path d="M29.4559 20.5141C28.4952 20.5075 27.5633 20.1867 26.8069 19.5994C26.4145 19.2947 26.0039 18.9134 25.6127 18.4578C25.5844 19.2805 25.4484 20.3942 24.9781 21.1792C24.5028 23.2119 26.9205 24.8267 28.0377 25.5148C29.0562 24.0198 29.3659 21.8837 29.4559 20.5141Z" fill="#FD995B"/>
<path d="M30.4338 26.1334C30.3863 26.0645 30.3741 25.9825 30.3918 25.9073H30.2791C30.2791 25.9073 29.8838 26.1517 29.4312 26.722C30.0122 27.4541 30.6872 28.7247 30.7449 30.7109C30.7833 29.3866 31.0966 28.3802 31.4733 27.6394L30.4338 26.1334Z" fill="#1E9EF4"/>
<path d="M28.2315 31.1039H30.8588V30.9848C30.8588 27.2416 28.6923 25.9072 28.6923 25.9072H28.5796C28.5973 25.9825 28.5852 26.0645 28.5376 26.1333L27.498 27.6392C27.9007 28.4303 28.2313 29.5231 28.2313 30.9848V31.1039H28.2315Z" fill="#4FABF7"/>
<path d="M28.6485 25.7331L27.5256 25.015C24.9285 23.2569 24.8821 21.7734 25.2091 20.9109C25.331 20.5895 25.0163 20.2786 24.6997 20.4123C23.5741 20.8878 22.8214 21.6883 22.4502 22.16C22.2642 22.3962 22.1889 22.7014 22.2414 22.9975C22.6905 25.5311 24.8225 27.2891 26.0691 28.1197C26.5589 28.4461 27.2192 28.3211 27.5536 27.8367L28.7291 26.1337C28.8205 26.0012 28.7839 25.8197 28.6485 25.7331Z" fill="#9BD8F9"/>
<path d="M36.5218 22.1598C36.1506 21.6881 35.3979 20.8877 34.2723 20.4122C33.9557 20.2784 33.641 20.5895 33.7629 20.9108C34.0899 21.7733 34.0435 23.2567 31.4463 25.0148L30.3235 25.733C30.1882 25.8195 30.1516 26.0011 30.2429 26.1334L31.4184 27.8364C31.7527 28.3208 32.4131 28.4458 32.9029 28.1194C34.1495 27.2887 36.2815 25.5309 36.7306 22.9972C36.7829 22.7014 36.7076 22.3961 36.5218 22.1598Z" fill="#9BD8F9"/>
<path d="M21.062 47.125V47.1372C23.1723 47.2916 24.8514 49.0652 24.8514 51.213L24.7026 56.4233H34.27L34.1211 51.213C34.1211 49.0652 35.8003 47.2916 37.9104 47.1372V47.125H21.062Z" fill="#2A428C"/>
<path d="M29.4861 48.6589V55.1694C29.4861 55.6511 29.6717 56.0905 29.973 56.4235H34.2697L34.1208 51.2131C34.1208 49.0653 35.8 47.2917 37.9101 47.1373V47.125H30.288C29.8045 47.465 29.4861 48.0261 29.4861 48.6589Z" fill="#1C2E7A"/>
<path d="M21.0621 47.125C18.8138 47.125 16.9741 48.9645 16.9741 51.213L17.589 72.7547C19.7168 74.2937 22.0083 75.6197 24.4337 76.7006C24.431 76.5697 24.4291 76.4387 24.433 76.3077L25.1499 51.2131C25.1501 48.9645 23.3104 47.125 21.0621 47.125Z" fill="#F9BA8F"/>
<path d="M34.2649 78.6559C34.1968 78.9594 34.1645 79.2609 34.1616 79.5575C36.0651 79.8488 38.0149 80 39.9999 80C42.0944 80 44.1488 79.8292 46.1521 79.5055C45.8196 78.9936 45.3235 78.5902 44.7193 78.3797L42.7041 77.678C41.8546 77.4581 41.2702 76.6797 41.2962 75.8025L41.9982 51.213C41.9982 48.9647 40.1587 47.125 37.9102 47.125C35.662 47.125 33.8223 48.9645 33.8223 51.213L34.5391 76.3075C34.5587 76.968 34.4954 77.6283 34.3507 78.273L34.2649 78.6559Z" fill="#F9BA8F"/>
<path d="M28.1903 0.080779C24.3002 0.610779 23.9305 2.8164 23.9288 3.62562C23.9285 3.79531 23.8344 3.95265 23.6817 4.02687C21.6583 5.01125 22.7492 9.75547 22.7492 9.75547C22.9525 9.76906 23.1652 9.8514 23.3238 9.92812C23.3627 9.6864 23.426 9.44843 23.5156 9.21828C23.5839 9.04297 23.6692 8.86593 23.7758 8.69859C23.9608 8.40828 24.0452 8.06578 24.02 7.72343C23.9474 6.73359 23.9824 4.78343 25.2888 4.19562C26.3955 3.69765 27.7533 3.98594 28.6191 4.2739C29.1813 4.46094 29.7905 4.46094 30.3527 4.2739C31.2185 3.98594 32.5761 3.69765 33.6828 4.19562C34.9855 4.78172 35.0241 6.72265 34.9522 7.715C34.9272 8.06 35.0092 8.40609 35.1957 8.69859C35.3058 8.87125 35.3932 9.05437 35.4624 9.23531C35.5485 9.46015 35.6099 9.69234 35.6477 9.92828C35.8477 9.8314 36.1335 9.72593 36.378 9.76047C36.408 8.72312 36.5036 7.60484 36.5036 7.60484C37.6566 1.95843 32.3789 -0.490002 28.1903 0.080779Z" fill="#2A428C"/>
<path d="M30.7694 0.101711C29.9063 -0.0264144 29.0266 -0.0332894 28.1903 0.0807731C24.3002 0.610773 23.9305 2.8164 23.9288 3.62562C23.9283 3.7953 23.8344 3.95265 23.6817 4.02687C21.6583 5.01124 22.7492 9.75546 22.7492 9.75546C22.9525 9.76906 23.1652 9.8514 23.3238 9.92812C23.3627 9.6864 23.426 9.44843 23.5156 9.21827C23.5839 9.04296 23.6692 8.86593 23.7758 8.69859C23.9608 8.40827 24.0452 8.06577 24.02 7.72343C23.9474 6.73374 23.9824 4.78343 25.2888 4.19562C26.3955 3.69765 27.7531 3.98593 28.6189 4.2739C28.7427 4.31499 28.8689 4.34546 28.9963 4.36859C28.9885 4.3553 28.9814 4.34171 28.9731 4.32859C27.2771 1.61374 30.7683 0.102179 30.7694 0.101711Z" fill="#1C2E7A"/>
<path d="M36.8154 9.895C36.5125 9.61734 35.9089 9.75812 35.6479 9.92812C35.7051 10.2841 35.7084 10.6483 35.659 11.008L35.3511 13.2508C35.3511 13.4316 35.3454 13.6089 35.335 13.7833C36.0859 14.0097 36.4589 13.3356 36.5217 12.873C36.5487 12.6739 36.5929 12.4775 36.6543 12.2859C36.8539 11.662 37.5745 10.5906 36.8154 9.895Z" fill="#FCAD6D"/>
<path d="M22.1564 9.895C22.4593 9.61734 23.0629 9.75812 23.3239 9.92812C23.2667 10.2841 23.2634 10.6483 23.3128 11.008L23.6207 13.2508C23.6207 13.4316 23.6264 13.6089 23.637 13.7833C22.886 14.0097 22.5131 13.3356 22.4503 12.873C22.4232 12.6739 22.379 12.4775 22.3176 12.2859C22.1179 11.662 21.3973 10.5906 22.1564 9.895Z" fill="#FD995B"/>
<path d="M35.4946 9.22281C35.2755 8.65125 34.936 8.41468 34.9865 7.71734C35.168 5.21234 34.2565 4.41593 33.6969 4.16421C32.6001 3.67062 31.2669 3.93359 30.3419 4.24109C29.7899 4.42468 29.1818 4.42468 28.6297 4.24109C27.7047 3.93359 26.3719 3.67046 25.2747 4.16421C24.7141 4.4164 23.8013 5.21453 23.9858 7.72593C24.0362 8.40921 23.7016 8.64578 23.4838 9.20578C23.2647 9.76875 23.1938 10.3933 23.2788 11.012L23.5865 13.2506C23.5865 16.9486 25.8238 19.085 26.7857 19.8319C28.3636 21.0573 30.5965 21.0663 32.186 19.8319C33.1479 19.085 35.3852 16.9484 35.3849 13.2553L35.6929 11.0125C35.7771 10.3998 35.7083 9.78093 35.4946 9.22281Z" fill="#F9BA8F"/>
<path d="M30.7694 19.832C29.8074 19.0852 27.5702 16.9486 27.5702 13.2508L27.2626 11.0122C27.1776 10.3934 27.2485 9.76875 27.4676 9.20594C27.6855 8.64594 28.0199 8.40938 27.9696 7.72609C27.8141 5.61 28.4379 4.71031 28.9733 4.32875C28.8572 4.30656 28.7422 4.27891 28.6297 4.24141C27.7047 3.93391 26.3719 3.67078 25.2747 4.16453C24.7143 4.41672 23.8015 5.21485 23.9858 7.72625C24.0362 8.40953 23.7016 8.64609 23.4838 9.20609C23.2647 9.76906 23.1938 10.3936 23.2788 11.0123L23.5865 13.2509C23.5865 16.9489 25.8238 19.0853 26.7857 19.8322C28.1411 20.8848 29.979 21.0372 31.478 20.2775C31.2315 20.1525 30.9933 20.0059 30.7694 19.832Z" fill="#FCAD6D"/>
<path d="M41.0834 43.8197C41.0678 44.4373 40.5615 44.9352 39.9401 44.9352H19.0331C18.4117 44.9352 17.9056 44.4372 17.8898 43.8197C16.9487 43.8372 16.1909 44.6044 16.1909 45.5497C16.1909 46.5059 16.9662 47.2812 17.9225 47.2812H41.0508C42.0072 47.2812 42.7823 46.5059 42.7823 45.5497C42.7823 44.6044 42.0245 43.8373 41.0834 43.8197Z" fill="#D3DCFB"/>
<path d="M23.3158 45.5497C23.3158 45.333 23.3572 45.1264 23.43 44.9353H19.0331C18.4117 44.9353 17.9056 44.4373 17.8898 43.8198C16.9487 43.8373 16.1909 44.6045 16.1909 45.5498C16.1909 46.5061 16.9662 47.2814 17.9225 47.2814H25.0475C24.0911 47.2813 23.3158 46.5059 23.3158 45.5497Z" fill="#BEC8F7"/>
<path d="M39.9401 45.0959H19.0331C18.3151 45.0959 17.7278 44.5086 17.7278 43.7906V29.0461C17.7278 28.3281 18.3151 27.7408 19.0331 27.7408H39.9401C40.6581 27.7408 41.2454 28.3281 41.2454 29.0461V43.7906C41.2454 44.5084 40.6581 45.0959 39.9401 45.0959Z" fill="#E9EFFF"/>
<path d="M22.3815 43.7905V29.0459C22.3815 28.328 22.9689 27.7406 23.6868 27.7406H19.0331C18.3151 27.7406 17.7278 28.328 17.7278 29.0459V43.7905C17.7278 44.5084 18.3151 45.0958 19.0331 45.0958H23.6868C22.9689 45.0959 22.3815 44.5084 22.3815 43.7905Z" fill="#D3DCFB"/>
<path d="M29.4867 38.5578C30.6547 38.5578 31.6015 37.611 31.6015 36.443C31.6015 35.275 30.6547 34.3281 29.4867 34.3281C28.3187 34.3281 27.3718 35.275 27.3718 36.443C27.3718 37.611 28.3187 38.5578 29.4867 38.5578Z" fill="#D3DCFB"/>
<path d="M24.6424 68.9755C20.453 71.9483 17.4811 68.9756 17.481 68.9755L17.5888 72.7545C19.7166 74.2936 22.0081 75.6195 24.4335 76.7005C24.4308 76.5695 24.4289 76.4386 24.4328 76.3075L24.6424 68.9755Z" fill="#FCAD6D"/>
<path d="M44.7196 78.3797L42.7044 77.678C41.8549 77.4581 41.2705 76.6797 41.2965 75.8025L41.4913 68.9755C37.3957 73.0711 34.3299 68.9755 34.3299 68.9755L34.5393 76.3075C34.5588 76.968 34.4955 77.6283 34.3508 78.273L34.2649 78.6559C34.1968 78.9594 34.1644 79.2609 34.1616 79.5575C36.0654 79.8488 38.0152 80 40.0002 80C42.0947 80 44.1491 79.8292 46.1524 79.5055C45.8199 78.9938 45.3238 78.5902 44.7196 78.3797Z" fill="#FCAD6D"/>
</g>
<defs>
<clipPath id="clip0">
<rect width="80" height="80" fill="white"/>
</clipPath>
</defs>
</svg>
