<svg width="46" height="44" viewBox="0 0 46 44" fill="none" xmlns="http://www.w3.org/2000/svg">
<path d="M6.38499 36.7692C6.89479 36.7692 7.30807 36.3559 7.30807 35.8462C7.30807 35.3364 6.89479 34.9231 6.38499 34.9231C5.87519 34.9231 5.46191 35.3364 5.46191 35.8462C5.46191 36.3559 5.87519 36.7692 6.38499 36.7692Z" fill="white"/>
<path d="M7.30784 5.38461C7.81764 5.38461 8.23092 4.97133 8.23092 4.46153C8.23092 3.95173 7.81764 3.53845 7.30784 3.53845C6.79804 3.53845 6.38477 3.95173 6.38477 4.46153C6.38477 4.97133 6.79804 5.38461 7.30784 5.38461Z" fill="white"/>
<path d="M23.9231 10.9231C24.4329 10.9231 24.8461 10.5098 24.8461 9.99999C24.8461 9.49019 24.4329 9.07692 23.9231 9.07692C23.4133 9.07692 23 9.49019 23 9.99999C23 10.5098 23.4133 10.9231 23.9231 10.9231Z" fill="white"/>
<path d="M31.3078 5.38461C31.8176 5.38461 32.2309 4.97133 32.2309 4.46153C32.2309 3.95173 31.8176 3.53845 31.3078 3.53845C30.798 3.53845 30.3848 3.95173 30.3848 4.46153C30.3848 4.97133 30.798 5.38461 31.3078 5.38461Z" fill="white"/>
<path d="M43.3078 13.6923C43.8176 13.6923 44.2309 13.279 44.2309 12.7692C44.2309 12.2594 43.8176 11.8461 43.3078 11.8461C42.798 11.8461 42.3848 12.2594 42.3848 12.7692C42.3848 13.279 42.798 13.6923 43.3078 13.6923Z" fill="white"/>
<path d="M43.3078 41.3846C43.8176 41.3846 44.2309 40.9713 44.2309 40.4615C44.2309 39.9517 43.8176 39.5385 43.3078 39.5385C42.798 39.5385 42.3848 39.9517 42.3848 40.4615C42.3848 40.9713 42.798 41.3846 43.3078 41.3846Z" fill="white"/>
<path d="M19.3078 43.2308C19.8176 43.2308 20.2309 42.8175 20.2309 42.3077C20.2309 41.7979 19.8176 41.3846 19.3078 41.3846C18.798 41.3846 18.3848 41.7979 18.3848 42.3077C18.3848 42.8175 18.798 43.2308 19.3078 43.2308Z" fill="white"/>
<path d="M44.2308 20.1538H40.5385V13.6923C40.5385 13.1825 40.1252 12.7692 39.6155 12.7692H15.0747L11.6528 9.34729C11.4797 9.17421 11.2449 9.07692 11.0001 9.07692H1.7693C1.25948 9.07692 0.846221 9.49018 0.846221 10C0.846498 16.3201 0.845391 39.4533 0.847698 39.5248C0.840037 40.046 1.25828 40.4615 1.7693 40.4615H37.7693C38.1615 40.4615 38.511 40.2136 38.6405 39.8434L45.102 21.3819C45.3113 20.7838 44.8683 20.1538 44.2308 20.1538ZM10.6177 10.9231L14.0397 14.345C14.2127 14.5181 14.4476 14.6154 14.6924 14.6154H38.6924V20.1538H36.8462V18.3077C36.8462 17.7979 36.4329 17.3846 35.9231 17.3846H11.0001C10.4903 17.3846 10.077 17.7979 10.077 18.3077V20.1538H8.23084C7.83853 20.1538 7.48914 20.4018 7.35964 20.7719L2.69238 34.1069V10.9231H10.6177ZM35.0001 20.1538H11.9231V19.2308H35.0001V20.1538ZM38.4067 34.9231H9.15391C8.6441 34.9231 8.23084 35.3364 8.23084 35.8462C8.23084 36.3559 8.6441 36.7692 9.15391 36.7692H37.7605L37.1144 38.6154H3.07038L8.88576 22H42.9299L38.4067 34.9231Z" fill="white"/>
<path d="M35.923 24.7692H14.6922C14.3426 24.7692 14.023 24.9668 13.8666 25.2795L11.0974 30.818C10.7911 31.4305 11.237 32.1538 11.923 32.1538H33.1538C33.5034 32.1538 33.823 31.9563 33.9794 31.6436L36.7486 26.1051C37.0549 25.4925 36.6091 24.7692 35.923 24.7692ZM32.5832 30.3077H13.4165L15.2627 26.6154H34.4294L32.5832 30.3077Z" fill="white"/>
<path d="M37.7692 9.07691C39.2962 9.07691 40.5385 7.83463 40.5385 6.30768C40.5385 4.78073 39.2962 3.53845 37.7692 3.53845C36.2423 3.53845 35 4.78073 35 6.30768C35 7.83463 36.2423 9.07691 37.7692 9.07691ZM37.7692 5.3846C38.2782 5.3846 38.6923 5.7987 38.6923 6.30768C38.6923 6.81667 38.2782 7.23076 37.7692 7.23076C37.2602 7.23076 36.8462 6.81667 36.8462 6.30768C36.8462 5.7987 37.2602 5.3846 37.7692 5.3846Z" fill="white"/>
<path d="M19.7693 7.23076C21.5508 7.23076 23.0001 5.78144 23.0001 4C23.0001 2.21855 21.5508 0.769226 19.7693 0.769226C17.9879 0.769226 16.5386 2.21855 16.5386 4C16.5386 5.78144 17.9879 7.23076 19.7693 7.23076ZM19.7693 2.61538C20.5328 2.61538 21.154 3.23652 21.154 4C21.154 4.76347 20.5328 5.38461 19.7693 5.38461C19.0059 5.38461 18.3847 4.76347 18.3847 4C18.3847 3.23652 19.0059 2.61538 19.7693 2.61538Z" fill="white"/>
</svg>
