<svg width="70" height="70" viewBox="0 0 70 70" fill="none" xmlns="http://www.w3.org/2000/svg">
<g clip-path="url(#clip0)">
<path d="M35.8156 21.0095C35.0894 18.2986 32.756 16.4151 30.0922 16.1496L29.2264 12.9182C30.4841 10.8304 30.9281 8.25623 30.249 5.72169L28.8504 0.502075L7.73073 6.16097C2.78251 7.4869 -0.164382 12.5913 1.16141 17.5395L2.75189 23.4752C0.578152 25.0371 -0.50099 27.8351 0.225274 30.5458C0.991324 33.4046 3.5059 35.3254 6.32797 35.4351C8.79484 40.1062 13.6482 42.9605 18.8238 42.9602C20.0383 42.9602 21.2714 42.803 22.4946 42.4751C28.9309 40.7505 33.2211 34.8123 32.9753 28.2949C35.3643 26.789 36.5816 23.8683 35.8156 21.0095ZM8.79238 10.1229L25.9501 5.52549L26.2871 6.78319C27.0276 9.54688 25.3816 12.3977 22.6181 13.1383L5.4602 17.7355L5.12318 16.4778C4.3827 13.7143 6.02869 10.8634 8.79238 10.1229ZM30.1906 25.0999L28.5203 25.6237L28.7753 27.3555C29.5174 32.396 26.3609 37.1928 21.433 38.5132C16.5048 39.8335 11.3729 37.2577 9.4954 32.5215L8.85035 30.8943L7.14187 31.2759C5.83249 31.5679 4.5346 30.7814 4.18705 29.4841C3.84579 28.2107 4.55688 26.8866 5.80556 26.4697L7.63667 25.8583L6.52171 21.6975L23.6794 17.1001C24.4594 16.891 25.1894 16.5878 25.861 16.2064L27.0532 20.6556L28.9446 20.2695C30.2343 20.0066 31.5122 20.7974 31.8535 22.071C32.2013 23.368 31.4708 24.6986 30.1906 25.0999Z" fill="#5600E8"/>
<path d="M20.3172 28.136C20.4283 28.5508 20.3713 28.9842 20.1565 29.3561C19.9417 29.7281 19.595 29.9941 19.1801 30.1053C18.3235 30.3343 17.44 29.8247 17.2104 28.9682L13.2485 30.0298C13.9312 32.5779 16.2441 34.2625 18.7651 34.2625C19.2528 34.2625 19.7485 34.1994 20.2416 34.0672C21.7146 33.6725 22.9459 32.7278 23.7084 31.4069C24.4709 30.086 24.6735 28.5474 24.2788 27.0742L20.3172 28.136Z" fill="#5600E8"/>
<path d="M67.248 50.0132L68.8385 44.0774C69.4807 41.6804 69.1512 39.1766 67.9105 37.0276C66.6696 34.8785 64.6662 33.3412 62.2692 32.6989L41.1496 27.0399L39.7509 32.2593C39.1087 34.6563 39.4384 37.16 40.6791 39.3091C40.7089 39.3608 40.7413 39.4104 40.7721 39.4614L39.9077 42.6874C37.2445 42.9534 34.9107 44.8368 34.1844 47.5471C33.4184 50.406 34.6357 53.3267 37.0249 54.8327C36.779 61.3501 41.069 67.2883 47.5055 69.0129C48.729 69.3408 49.9613 69.498 51.1762 69.498C56.3515 69.4979 61.2052 66.6437 63.672 61.9729C66.4942 61.8634 69.0086 59.9426 69.7748 57.0836C70.501 54.3731 69.4216 51.5751 67.248 50.0132ZM43.7128 33.3211L44.0498 32.0634L61.2075 36.6608C62.5462 37.0196 63.6653 37.8782 64.3582 39.0785C65.0511 40.2787 65.2352 41.6771 64.8765 43.0159L64.5396 44.2735L47.3819 39.6761C46.0431 39.3173 44.9242 38.4587 44.2311 37.2584C43.5382 36.0581 43.3541 34.6599 43.7128 33.3211ZM65.8127 56.0221C65.4651 57.3193 64.1666 58.1057 62.8582 57.8137L61.1497 57.4319L60.5045 59.0593C58.6269 63.7955 53.4956 66.3711 48.567 65.051C43.639 63.7306 40.4825 58.9338 41.2248 53.8933L41.4797 52.1615L39.8094 51.6377C38.5293 51.2363 37.7988 49.9058 38.1463 48.6088C38.4875 47.3355 39.7642 46.5439 41.0551 46.8073L42.9465 47.1934L44.1383 42.7459C44.8168 43.1294 45.5478 43.4307 46.3204 43.6377L63.4781 48.2354L62.3633 52.3962L64.1945 53.0076C65.4432 53.4245 66.154 54.7486 65.8127 56.0221Z" fill="#5600E8"/>
<path d="M52.0402 56.4827C51.6682 56.6973 51.2346 56.7545 50.8199 56.6433C49.9632 56.4138 49.4533 55.5303 49.6828 54.6737L45.7208 53.6122C44.9061 56.6533 46.7172 59.7904 49.7583 60.6051C50.2502 60.7369 50.7493 60.8021 51.2453 60.8021C52.2346 60.8021 53.2112 60.5426 54.0909 60.0347C55.4116 59.2721 56.3563 58.0409 56.7512 56.5676L52.7891 55.5061C52.6783 55.9212 52.4121 56.2679 52.0402 56.4827Z" fill="#5600E8"/>
<path d="M44.2789 13.6666H48.3806V10.8709H51.1761V6.76927H48.3806V3.97372H44.2789V6.76927H41.4834V10.8709H44.2789V13.6666Z" fill="#5600E8"/>
<path d="M9.79098 51.0522H5.68934V53.8478H2.8938V57.9494H5.68934V60.7451H9.79098V57.9494H12.5867V53.8478H9.79098V51.0522Z" fill="#5600E8"/>
<path d="M61.053 14.7407H65.1593V18.8422H61.053V14.7407Z" fill="#5600E8"/>
<path d="M49.9263 20.2964H54.0326V24.3979H49.9263V20.2964Z" fill="#5600E8"/>
<path d="M20.3704 49.0014H24.4767V53.1029H20.3704V49.0014Z" fill="#5600E8"/>
<path d="M26.9463 61.9934H31.0526V66.0949H26.9463V61.9934Z" fill="#5600E8"/>
</g>
<defs>
<clipPath id="clip0">
<rect width="70" height="70" fill="white"/>
</clipPath>
</defs>
</svg>
