<svg width="44" height="46" viewBox="0 0 44 46" fill="none" xmlns="http://www.w3.org/2000/svg">
<path d="M31.2307 35.9231C31.7405 35.9231 32.1538 35.5098 32.1538 35C32.1538 34.4902 31.7405 34.0769 31.2307 34.0769C30.7209 34.0769 30.3076 34.4902 30.3076 35C30.3076 35.5098 30.7209 35.9231 31.2307 35.9231Z" fill="white"/>
<path d="M1.69212 11C2.20192 11 2.6152 10.5867 2.6152 10.0769C2.6152 9.56712 2.20192 9.15384 1.69212 9.15384C1.18232 9.15384 0.769043 9.56712 0.769043 10.0769C0.769043 10.5867 1.18232 11 1.69212 11Z" fill="white"/>
<path d="M2.61497 29.4615C3.12477 29.4615 3.53805 29.0483 3.53805 28.5385C3.53805 28.0287 3.12477 27.6154 2.61497 27.6154C2.10517 27.6154 1.69189 28.0287 1.69189 28.5385C1.69189 29.0483 2.10517 29.4615 2.61497 29.4615Z" fill="white"/>
<path d="M8.15355 33.1538C8.66335 33.1538 9.07663 32.7406 9.07663 32.2308C9.07663 31.721 8.66335 31.3077 8.15355 31.3077C7.64375 31.3077 7.23047 31.721 7.23047 32.2308C7.23047 32.7406 7.64375 33.1538 8.15355 33.1538Z" fill="white"/>
<path d="M39.5383 30.3846C40.0481 30.3846 40.4614 29.9713 40.4614 29.4615C40.4614 28.9517 40.0481 28.5385 39.5383 28.5385C39.0285 28.5385 38.6152 28.9517 38.6152 29.4615C38.6152 29.9713 39.0285 30.3846 39.5383 30.3846Z" fill="white"/>
<path d="M15.5383 27.6154C16.0481 27.6154 16.4614 27.2021 16.4614 26.6923C16.4614 26.1825 16.0481 25.7692 15.5383 25.7692C15.0285 25.7692 14.6152 26.1825 14.6152 26.6923C14.6152 27.2021 15.0285 27.6154 15.5383 27.6154Z" fill="white"/>
<path d="M9.07689 44.2308C9.58669 44.2308 9.99996 43.8175 9.99996 43.3077C9.99996 42.7979 9.58669 42.3846 9.07689 42.3846C8.56708 42.3846 8.15381 42.7979 8.15381 43.3077C8.15381 43.8175 8.56708 44.2308 9.07689 44.2308Z" fill="white"/>
<path d="M3.53827 35.9231C2.01132 35.9231 0.769043 37.1654 0.769043 38.6923C0.769043 40.2193 2.01132 41.4615 3.53827 41.4615C5.06523 41.4615 6.30751 40.2193 6.30751 38.6923C6.30751 37.1654 5.06523 35.9231 3.53827 35.9231ZM3.53827 39.6154C3.02929 39.6154 2.6152 39.2013 2.6152 38.6923C2.6152 38.1833 3.02929 37.7692 3.53827 37.7692C4.04726 37.7692 4.46135 38.1833 4.46135 38.6923C4.46135 39.2013 4.04726 39.6154 3.53827 39.6154Z" fill="white"/>
<path d="M35.8461 37.7692C33.8102 37.7692 32.1538 39.4256 32.1538 41.4615C32.1538 43.4975 33.8102 45.1538 35.8461 45.1538C37.8821 45.1538 39.5384 43.4975 39.5384 41.4615C39.5384 39.4256 37.8821 37.7692 35.8461 37.7692ZM35.8461 43.3077C34.8282 43.3077 34 42.4795 34 41.4615C34 40.4436 34.8282 39.6154 35.8461 39.6154C36.8641 39.6154 37.6923 40.4436 37.6923 41.4615C37.6923 42.4795 36.8641 43.3077 35.8461 43.3077Z" fill="white"/>
<path d="M13.4869 23.8108C11.3106 22.1536 10.0624 19.6366 10.0624 16.9052C10.0624 12.1552 13.926 8.26381 18.6752 8.23077C19.185 8.22717 19.5954 7.81104 19.5918 7.30123C19.5883 6.79363 19.1757 6.38461 18.669 6.38461C13.0074 6.38461 8.21631 11.0298 8.21631 16.9052C8.21631 20.2178 9.72979 23.2702 12.3685 25.2796C12.7758 25.5897 13.3545 25.5085 13.6622 25.1045C13.9709 24.6988 13.8925 24.1197 13.4869 23.8108Z" fill="white"/>
<path d="M30.5875 16.6645C32.3354 16.6645 33.7574 15.2425 33.7574 13.4945C33.7574 11.7439 32.3354 10.3196 30.5875 10.3196C28.8369 10.3196 27.4126 11.7439 27.4126 13.4945C27.4127 15.2424 28.8369 16.6645 30.5875 16.6645ZM30.5875 12.1657C31.3174 12.1657 31.9113 12.7619 31.9113 13.4945C31.9113 14.2245 31.3174 14.8183 30.5875 14.8183C29.8548 14.8183 29.2587 14.2245 29.2587 13.4945C29.2588 12.7618 29.8549 12.1657 30.5875 12.1657Z" fill="white"/>
<path d="M30.5903 7.55037C30.0805 7.55037 29.6672 7.96363 29.6672 8.47345C29.6672 8.98326 30.0805 9.39652 30.5903 9.39652C32.8455 9.39652 34.6802 11.2362 34.6802 13.4976C34.6802 15.7527 32.8455 17.5875 30.5903 17.5875C28.329 17.5875 26.4892 15.7528 26.4892 13.4976C26.4892 12.9878 26.0759 12.5745 25.5661 12.5745C25.0564 12.5745 24.6431 12.9878 24.6431 13.4976C24.6431 16.7707 27.3109 19.4337 30.5903 19.4337C33.8634 19.4337 36.5264 16.7708 36.5264 13.4976C36.5264 10.2182 33.8634 7.55037 30.5903 7.55037Z" fill="white"/>
<path d="M42.5085 11.4677L39.7078 10.8422C39.5146 10.176 39.2478 9.53231 38.9102 8.91874L40.4485 6.48892C40.6795 6.12403 40.6267 5.64782 40.3213 5.34246L38.7342 3.75532C38.4284 3.4496 37.9515 3.39708 37.5867 3.62877L35.1586 5.17012C34.5515 4.83486 33.9079 4.56745 33.2348 4.37083L32.6088 1.56818C32.5146 1.14634 32.1402 0.846338 31.7079 0.846338H29.461C29.0288 0.846338 28.6545 1.14634 28.5601 1.56818L28.1012 3.62268C25.4622 1.802 22.3202 0.821968 19.119 0.846615C10.4956 0.90643 3.53809 7.90465 3.53809 16.5385C3.53809 21.6091 5.94778 26.1482 9.73156 29.0295C10.9497 29.957 11.7142 31.4016 11.829 32.9529C10.4859 34.1763 10.6568 36.3433 12.2036 37.3334C11.9762 37.7352 11.8458 38.1987 11.8458 38.6923C11.8458 40.2193 13.0881 41.4615 14.615 41.4615H15.5381C15.5381 43.4975 17.1945 45.1539 19.2304 45.1539C21.2663 45.1539 22.9227 43.4975 22.9227 41.4615H23.8458C25.3727 41.4615 26.615 40.2193 26.615 38.6923C26.615 38.1987 26.4846 37.7352 26.2572 37.3334C27.8005 36.3456 27.9789 34.1769 26.6294 32.9507C26.7373 31.3962 27.5074 29.9682 28.7819 28.9891C29.8533 28.1661 30.8128 27.2078 31.6413 26.1379H31.708C32.1403 26.1379 32.5146 25.8379 32.6089 25.4161L33.2344 22.6155C33.9043 22.4218 34.5481 22.155 35.1588 21.8183L37.5877 23.356C37.9525 23.5869 38.4287 23.5342 38.7343 23.2288L40.3214 21.6416C40.6268 21.3362 40.6796 20.86 40.4486 20.4951L38.9103 18.0653C39.2478 17.4518 39.5147 16.8081 39.7079 16.1419L42.5086 15.5163C42.9305 15.4221 43.2305 15.0478 43.2305 14.6155V12.3686C43.2304 11.9363 42.9304 11.5619 42.5085 11.4677ZM25.6919 35C25.6919 35.509 25.2778 35.9231 24.7689 35.9231C23.5113 35.9231 15.1607 35.9231 13.6919 35.9231C13.1829 35.9231 12.7689 35.509 12.7689 35C12.7689 34.491 13.1829 34.0769 13.6919 34.0769H24.7689C25.2778 34.0769 25.6919 34.491 25.6919 35ZM19.2304 43.3077C18.2124 43.3077 17.3842 42.4795 17.3842 41.4615H21.0765C21.0765 42.4795 20.2484 43.3077 19.2304 43.3077ZM23.8458 39.6154C22.6865 39.6154 15.5758 39.6154 14.615 39.6154C14.106 39.6154 13.6919 39.2013 13.6919 38.6923C13.6919 38.1833 14.106 37.7692 14.615 37.7692H23.8458C24.3548 37.7692 24.7689 38.1833 24.7689 38.6923C24.7689 39.2013 24.3548 39.6154 23.8458 39.6154ZM27.6573 27.525C26.12 28.7061 25.1322 30.3816 24.8516 32.2328C24.7425 32.2296 13.7086 32.2298 13.6042 32.233C13.317 30.3831 12.3328 28.6898 10.8501 27.5607C7.37652 24.9157 5.38424 20.8982 5.38424 16.5385C5.38424 8.95658 11.5515 2.74529 19.132 2.69249C21.7825 2.67505 24.3891 3.43594 26.6261 4.85988C26.4171 4.95597 26.2116 5.05889 26.0104 5.16994L23.5823 3.62858C23.2176 3.39689 22.7407 3.44941 22.4349 3.75514L20.8477 5.34228C20.5424 5.64763 20.4896 6.12394 20.7205 6.48874L22.2588 8.91855C21.9213 9.53203 21.6545 10.1758 21.4612 10.842L18.6606 11.4675C18.2386 11.5618 17.9387 11.9361 17.9387 12.3684V14.6152C17.9387 15.0475 18.2387 15.4219 18.6606 15.5161L21.461 16.1416C21.6548 16.8114 21.9215 17.4554 22.2583 18.0661L20.7205 20.495C20.4896 20.8598 20.5424 21.3361 20.8477 21.6414L22.4349 23.2286C22.7403 23.5341 23.2165 23.5867 23.5814 23.3559L26.0112 21.8174C26.6247 22.155 27.2683 22.4219 27.9346 22.6151L28.5602 25.4158C28.6374 25.761 28.9022 26.0244 29.2327 26.1087C28.7442 26.6198 28.2187 27.0939 27.6573 27.525ZM41.3842 13.8758L38.7532 14.4635C38.4037 14.5416 38.1309 14.8146 38.0533 15.1641C37.8633 16.0193 37.5251 16.8351 37.0484 17.5889C36.8577 17.8904 36.8577 18.2748 37.0485 18.5762L38.4935 20.8586L37.951 21.401L35.6686 19.9561C35.3665 19.7649 34.981 19.7652 34.6792 19.9573C33.934 20.4315 33.1189 20.7692 32.2566 20.9608C31.907 21.0385 31.634 21.3112 31.5559 21.6607L30.9682 24.2918H30.2007L29.613 21.6606C29.5349 21.3112 29.2618 21.0385 28.9123 20.9607C28.0569 20.7707 27.2411 20.4326 26.4874 19.9558C26.1859 19.7651 25.8017 19.7653 25.5002 19.956L23.2178 21.401L22.6753 20.8585L24.1203 18.5761C24.3116 18.2739 24.3111 17.8885 24.1191 17.5867C23.6447 16.8413 23.3072 16.0262 23.1155 15.164C23.0379 14.8145 22.7651 14.5414 22.4157 14.4634L19.7847 13.8758V13.1081L22.4157 12.5204C22.7651 12.4424 23.0379 12.1693 23.1155 11.8198C23.3056 10.9646 23.6437 10.1487 24.1205 9.39495C24.3111 9.09348 24.3111 8.70911 24.1203 8.40772L22.6753 6.12532L23.2172 5.58348L25.4993 7.03215C25.8018 7.22425 26.1885 7.22388 26.4908 7.03086C27.2288 6.55963 28.0449 6.22021 28.9165 6.02212C29.2641 5.94311 29.5352 5.67108 29.6129 5.32326L30.2008 2.69231H30.9683L31.556 5.32335C31.6337 5.67117 31.9047 5.9432 32.2523 6.02221C33.1241 6.22031 33.9403 6.55972 34.6781 7.03095C34.9801 7.22388 35.3668 7.22452 35.6696 7.03225L37.9517 5.58357L38.4935 6.12542L37.0485 8.40782C36.8577 8.7092 36.8577 9.09357 37.0484 9.39505C37.5251 10.1488 37.8633 10.9646 38.0533 11.8199C38.1309 12.1694 38.4037 12.4425 38.7532 12.5205L41.3842 13.1082V13.8758Z" fill="white"/>
</svg>
