<svg width="44" height="45" viewBox="0 0 44 45" fill="none" xmlns="http://www.w3.org/2000/svg">
<path d="M31.8466 4.53847H30.1802C29.9565 3.48514 29.0195 2.69231 27.9005 2.69231H24.3812C23.8557 1.58887 22.7267 0.846161 21.462 0.846161C20.1972 0.846161 19.0683 1.58887 18.5428 2.69231H15.0235C13.9045 2.69231 12.9675 3.48514 12.7438 4.53847H11.0774C8.91414 4.53847 7.1543 6.29831 7.1543 8.46154V40.3077C7.1543 42.4709 8.91414 44.2308 11.0774 44.2308H31.8466C34.0098 44.2308 35.7697 42.4709 35.7697 40.3077V8.46154C35.7697 6.29831 34.0098 4.53847 31.8466 4.53847ZM14.5389 5.02308C14.5389 4.75585 14.7563 4.53847 15.0235 4.53847H19.2005C19.6396 4.53847 20.0178 4.22924 20.1052 3.79899C20.2353 3.15773 20.8061 2.69231 21.462 2.69231C22.1179 2.69231 22.6887 3.15773 22.8188 3.79899C22.9061 4.22924 23.2844 4.53847 23.7234 4.53847H27.9005C28.1677 4.53847 28.3851 4.75585 28.3851 5.02308V6.82308C28.3851 7.09031 28.1677 7.3077 27.9005 7.3077H15.0235C14.7563 7.3077 14.5389 7.09031 14.5389 6.82308V5.02308ZM33.9235 40.3077C33.9235 41.3749 33.1143 42.2562 32.0774 42.3714V15.6154C32.0774 15.1056 31.664 14.6923 31.1543 14.6923C30.6446 14.6923 30.2312 15.1056 30.2312 15.6154V42.3846H12.6928V12.8462C12.6928 12.3363 12.2795 11.9231 11.7697 11.9231C11.2599 11.9231 10.8466 12.3363 10.8466 12.8462V42.3714C9.80962 42.2562 9.00045 41.3748 9.00045 40.3077V8.46154C9.00045 7.31628 9.93211 6.38462 11.0774 6.38462H12.6928V6.82308C12.6928 8.10828 13.7383 9.15385 15.0235 9.15385H27.9005C29.1857 9.15385 30.2312 8.10828 30.2312 6.82308V6.38462H31.8466C32.9918 6.38462 33.9235 7.31628 33.9235 8.46154V40.3077Z" fill="white"/>
<path d="M28.3848 17.4615H21.0002C20.4904 17.4615 20.0771 17.8748 20.0771 18.3846C20.0771 18.8944 20.4904 19.3077 21.0002 19.3077H28.3848C28.8946 19.3077 29.3079 18.8944 29.3079 18.3846C29.3079 17.8748 28.8946 17.4615 28.3848 17.4615Z" fill="white"/>
<path d="M21.0002 16.5385H24.6925C25.2022 16.5385 25.6156 16.1252 25.6156 15.6154C25.6156 15.1056 25.2022 14.6923 24.6925 14.6923H21.0002C20.4904 14.6923 20.0771 15.1056 20.0771 15.6154C20.0771 16.1252 20.4904 16.5385 21.0002 16.5385Z" fill="white"/>
<path d="M17.5881 20.4913L15.6066 22.4132L14.944 21.7506C14.5836 21.3902 13.9991 21.3902 13.6385 21.7506C13.278 22.1111 13.278 22.6956 13.6385 23.0561L14.9439 24.3616C15.3002 24.7179 15.8771 24.7229 16.2394 24.3713L18.8735 21.8165C19.2394 21.4616 19.2483 20.8772 18.8934 20.5112C18.5384 20.1452 17.9539 20.1364 17.5881 20.4913Z" fill="white"/>
<path d="M28.3848 23H21.0002C20.4904 23 20.0771 23.4134 20.0771 23.9231C20.0771 24.4328 20.4904 24.8461 21.0002 24.8461H28.3848C28.8946 24.8461 29.3079 24.4328 29.3079 23.9231C29.3079 23.4134 28.8946 23 28.3848 23Z" fill="white"/>
<path d="M21.0002 22.0769H24.6925C25.2022 22.0769 25.6156 21.6637 25.6156 21.1539C25.6156 20.644 25.2022 20.2308 24.6925 20.2308H21.0002C20.4904 20.2308 20.0771 20.644 20.0771 21.1539C20.0771 21.6637 20.4904 22.0769 21.0002 22.0769Z" fill="white"/>
<path d="M17.588 26.0297L15.6065 27.9516L14.944 27.2889C14.5835 26.9286 13.999 26.9285 13.6385 27.2889C13.2781 27.6494 13.278 28.2339 13.6385 28.5944L14.944 29.8999C15.3003 30.2562 15.8771 30.2612 16.2394 29.9097L18.8735 27.3548C19.2394 26.9999 19.2484 26.4155 18.8934 26.0496C18.5383 25.6836 17.9538 25.6747 17.588 26.0297Z" fill="white"/>
<path d="M28.3848 28.5385H21.0002C20.4904 28.5385 20.0771 28.9518 20.0771 29.4615C20.0771 29.9713 20.4904 30.3846 21.0002 30.3846H28.3848C28.8946 30.3846 29.3079 29.9713 29.3079 29.4615C29.3079 28.9518 28.8946 28.5385 28.3848 28.5385Z" fill="white"/>
<path d="M21.0002 27.6154H24.6925C25.2022 27.6154 25.6156 27.202 25.6156 26.6923C25.6156 26.1826 25.2022 25.7692 24.6925 25.7692H21.0002C20.4904 25.7692 20.0771 26.1826 20.0771 26.6923C20.0771 27.202 20.4904 27.6154 21.0002 27.6154Z" fill="white"/>
<path d="M17.588 31.5682L15.6065 33.49L14.944 32.8274C14.5835 32.4671 13.999 32.467 13.6385 32.8274C13.2781 33.1878 13.278 33.7723 13.6385 34.1329L14.944 35.4384C15.3003 35.7947 15.8771 35.7997 16.2394 35.4482L18.8735 32.8933C19.2394 32.5383 19.2484 31.9539 18.8934 31.588C18.5383 31.222 17.9538 31.2132 17.588 31.5682Z" fill="white"/>
<path d="M28.3848 34.0769H21.0002C20.4904 34.0769 20.0771 34.4903 20.0771 35C20.0771 35.5097 20.4904 35.9231 21.0002 35.9231H28.3848C28.8946 35.9231 29.3079 35.5097 29.3079 35C29.3079 34.4903 28.8946 34.0769 28.3848 34.0769Z" fill="white"/>
<path d="M21.0002 33.1538H24.6925C25.2022 33.1538 25.6156 32.7405 25.6156 32.2308C25.6156 31.721 25.2022 31.3077 24.6925 31.3077H21.0002C20.4904 31.3077 20.0771 31.721 20.0771 32.2308C20.0771 32.7405 20.4904 33.1538 21.0002 33.1538Z" fill="white"/>
<path d="M3.46162 24.8461C1.93466 24.8461 0.692383 26.0884 0.692383 27.6154C0.692383 29.1423 1.93466 30.3846 3.46162 30.3846C4.98857 30.3846 6.23085 29.1423 6.23085 27.6154C6.23085 26.0884 4.98857 24.8461 3.46162 24.8461ZM3.46162 28.5385C2.95263 28.5385 2.53854 28.1244 2.53854 27.6154C2.53854 27.1064 2.95263 26.6923 3.46162 26.6923C3.9706 26.6923 4.38469 27.1064 4.38469 27.6154C4.38469 28.1244 3.9706 28.5385 3.46162 28.5385Z" fill="white"/>
<path d="M39.9231 10.0769C38.1417 10.0769 36.6924 11.5263 36.6924 13.3077C36.6924 15.0891 38.1417 16.5385 39.9231 16.5385C41.7046 16.5385 43.1539 15.0891 43.1539 13.3077C43.1539 11.5263 41.7046 10.0769 39.9231 10.0769ZM39.9231 14.6923C39.1597 14.6923 38.5385 14.0712 38.5385 13.3077C38.5385 12.5442 39.1597 11.9231 39.9231 11.9231C40.6866 11.9231 41.3078 12.5442 41.3078 13.3077C41.3078 14.0712 40.6866 14.6923 39.9231 14.6923Z" fill="white"/>
<path d="M35.7693 4.53847C36.2791 4.53847 36.6923 4.1252 36.6923 3.6154C36.6923 3.1056 36.2791 2.69232 35.7693 2.69232C35.2595 2.69232 34.8462 3.1056 34.8462 3.6154C34.8462 4.1252 35.2595 4.53847 35.7693 4.53847Z" fill="white"/>
<path d="M39.4616 21.1539C39.9714 21.1539 40.3847 20.7406 40.3847 20.2308C40.3847 19.721 39.9714 19.3077 39.4616 19.3077C38.9518 19.3077 38.5386 19.721 38.5386 20.2308C38.5386 20.7406 38.9518 21.1539 39.4616 21.1539Z" fill="white"/>
<path d="M38.5383 37.7692C39.0481 37.7692 39.4614 37.3559 39.4614 36.8461C39.4614 36.3363 39.0481 35.9231 38.5383 35.9231C38.0285 35.9231 37.6152 36.3363 37.6152 36.8461C37.6152 37.3559 38.0285 37.7692 38.5383 37.7692Z" fill="white"/>
<path d="M4.3845 36.8461C4.89431 36.8461 5.30758 36.4329 5.30758 35.9231C5.30758 35.4133 4.89431 35 4.3845 35C3.8747 35 3.46143 35.4133 3.46143 35.9231C3.46143 36.4329 3.8747 36.8461 4.3845 36.8461Z" fill="white"/>
<path d="M3.46165 22.0769C3.97145 22.0769 4.38473 21.6637 4.38473 21.1539C4.38473 20.6441 3.97145 20.2308 3.46165 20.2308C2.95185 20.2308 2.53857 20.6441 2.53857 21.1539C2.53857 21.6637 2.95185 22.0769 3.46165 22.0769Z" fill="white"/>
<path d="M4.3845 7.3077C4.89431 7.3077 5.30758 6.89443 5.30758 6.38463C5.30758 5.87482 4.89431 5.46155 4.3845 5.46155C3.8747 5.46155 3.46143 5.87482 3.46143 6.38463C3.46143 6.89443 3.8747 7.3077 4.3845 7.3077Z" fill="white"/>
<path d="M31.1535 13.7692C31.6633 13.7692 32.0766 13.356 32.0766 12.8462C32.0766 12.3364 31.6633 11.9231 31.1535 11.9231C30.6437 11.9231 30.2305 12.3364 30.2305 12.8462C30.2305 13.356 30.6437 13.7692 31.1535 13.7692Z" fill="white"/>
</svg>
