<svg width="44" height="46" viewBox="0 0 44 46" fill="none" xmlns="http://www.w3.org/2000/svg">
<path d="M41.3845 31.3077C41.8943 31.3077 42.3076 30.8944 42.3076 30.3846C42.3076 29.8748 41.8943 29.4615 41.3845 29.4615C40.8747 29.4615 40.4614 29.8748 40.4614 30.3846C40.4614 30.8944 40.8747 31.3077 41.3845 31.3077Z" fill="white"/>
<path d="M41.3845 16.5385C41.8943 16.5385 42.3076 16.1252 42.3076 15.6154C42.3076 15.1056 41.8943 14.6923 41.3845 14.6923C40.8747 14.6923 40.4614 15.1056 40.4614 15.6154C40.4614 16.1252 40.8747 16.5385 41.3845 16.5385Z" fill="white"/>
<path d="M3.53831 16.5385C4.04811 16.5385 4.46139 16.1252 4.46139 15.6154C4.46139 15.1056 4.04811 14.6923 3.53831 14.6923C3.02851 14.6923 2.61523 15.1056 2.61523 15.6154C2.61523 16.1252 3.02851 16.5385 3.53831 16.5385Z" fill="white"/>
<path d="M30.3073 31.3077C30.8171 31.3077 31.2304 30.8944 31.2304 30.3846C31.2304 29.8748 30.8171 29.4615 30.3073 29.4615C29.7975 29.4615 29.3843 29.8748 29.3843 30.3846C29.3843 30.8944 29.7975 31.3077 30.3073 31.3077Z" fill="white"/>
<path d="M3.53831 30.3846C4.04811 30.3846 4.46139 29.9714 4.46139 29.4616C4.46139 28.9518 4.04811 28.5385 3.53831 28.5385C3.02851 28.5385 2.61523 28.9518 2.61523 29.4616C2.61523 29.9714 3.02851 30.3846 3.53831 30.3846Z" fill="white"/>
<path d="M18.3074 21.1538C18.8172 21.1538 19.2304 20.7406 19.2304 20.2308C19.2304 19.721 18.8172 19.3077 18.3074 19.3077C17.7976 19.3077 17.3843 19.721 17.3843 20.2308C17.3843 20.7406 17.7976 21.1538 18.3074 21.1538Z" fill="white"/>
<path d="M23.8459 18.3846C24.3557 18.3846 24.769 17.9714 24.769 17.4616C24.769 16.9518 24.3557 16.5385 23.8459 16.5385C23.3361 16.5385 22.9229 16.9518 22.9229 17.4616C22.9229 17.9714 23.3361 18.3846 23.8459 18.3846Z" fill="white"/>
<path d="M1.69212 42.3846C2.20192 42.3846 2.6152 41.9713 2.6152 41.4616C2.6152 40.9518 2.20192 40.5385 1.69212 40.5385C1.18232 40.5385 0.769043 40.9518 0.769043 41.4616C0.769043 41.9713 1.18232 42.3846 1.69212 42.3846Z" fill="white"/>
<path d="M38.5326 35.3694C39.0634 34.7435 39.3845 33.9343 39.3845 33.0513C39.3845 31.0719 37.7742 29.4615 35.7947 29.4615C33.8153 29.4615 32.2049 31.0719 32.2049 33.0513C32.2049 33.9343 32.526 34.7435 33.0569 35.3694C32.4672 35.6719 31.9426 36.0827 31.5088 36.5758C30.6759 34.6239 28.9552 33.1394 26.8571 32.6293C27.8793 31.6077 28.5127 30.1969 28.5127 28.641C28.5127 25.5305 25.9822 23 22.8717 23C19.7613 23 17.2307 25.5305 17.2307 28.641C17.2307 30.1969 17.864 31.6077 18.8862 32.6292C16.7882 33.1393 15.0675 34.6239 14.2346 36.5757C13.8008 36.0825 13.276 35.6718 12.6864 35.3694C13.2173 34.7435 13.5384 33.9343 13.5384 33.0513C13.5384 31.0719 11.928 29.4615 9.94867 29.4615C7.96932 29.4615 6.35892 31.0719 6.35892 33.0513C6.35892 33.9343 6.68006 34.7435 7.21083 35.3694C5.51956 36.237 4.35889 37.9978 4.35889 40.0256V42.3846C4.35889 42.8944 4.77215 43.3077 5.28196 43.3077H13.6922V44.2308C13.6922 44.7405 14.1055 45.1539 14.6153 45.1539H31.1281C31.6378 45.1539 32.0512 44.7405 32.0512 44.2308V43.3077H40.4614C40.9712 43.3077 41.3845 42.8944 41.3845 42.3846V40.0256C41.3845 37.9978 40.2238 36.237 38.5326 35.3694ZM35.7947 31.3077C36.7561 31.3077 37.5383 32.0899 37.5383 33.0513C37.5383 34.0121 36.7571 34.7939 35.7966 34.7949H35.793C34.8323 34.7939 34.0511 34.0122 34.0511 33.0513C34.0511 32.0899 34.8333 31.3077 35.7947 31.3077ZM22.8717 24.8462C24.9642 24.8462 26.6665 26.5485 26.6665 28.641C26.6665 30.7335 24.9642 32.4358 22.8717 32.4358C20.7792 32.4358 19.0769 30.7335 19.0769 28.641C19.0769 26.5485 20.7792 24.8462 22.8717 24.8462ZM9.94867 31.3077C10.9101 31.3077 11.6923 32.0899 11.6923 33.0513C11.6923 34.0121 10.9111 34.7939 9.95043 34.7949H9.94692C8.98636 34.7939 8.20507 34.0122 8.20507 33.0513C8.20507 32.0899 8.98729 31.3077 9.94867 31.3077ZM12.8717 41.4616V40.3846C12.8717 39.8749 12.4584 39.4615 11.9486 39.4615C11.4388 39.4615 11.0255 39.8749 11.0255 40.3846V41.4616H8.87172V40.3846C8.87172 39.8749 8.45846 39.4615 7.94864 39.4615C7.43883 39.4615 7.02556 39.8749 7.02556 40.3846V41.4616H6.20504V40.0256C6.20504 38.1593 7.72341 36.641 9.58969 36.641H10.3077C12.1727 36.641 13.6903 38.1575 13.6922 40.0221V41.4616H12.8717ZM30.205 43.3077H27.3333V41.6154C27.3333 41.1057 26.9199 40.6924 26.4102 40.6924C25.9005 40.6924 25.4871 41.1057 25.4871 41.6154V43.3077H20.2563V41.6154C20.2563 41.1057 19.843 40.6924 19.3332 40.6924C18.8234 40.6924 18.4101 41.1057 18.4101 41.6154V43.3077H15.5384C15.5384 43.1701 15.5384 39.0541 15.5384 39.2359C15.5384 36.5043 17.7607 34.2821 20.4922 34.2821H25.2513C27.9828 34.2821 30.205 36.5043 30.205 39.2359V42.3846V43.3077ZM39.5384 41.4616H38.7178V40.3846C38.7178 39.8749 38.3045 39.4615 37.7948 39.4615C37.285 39.4615 36.8717 39.8749 36.8717 40.3846V41.4616H34.7178V40.3846C34.7178 39.8749 34.3044 39.4615 33.7947 39.4615C33.285 39.4615 32.8716 39.8749 32.8716 40.3846V41.4616H32.0511V40.0256C32.0511 38.1593 33.5695 36.641 35.4358 36.641H36.1536C38.0199 36.641 39.5383 38.1593 39.5383 40.0256V41.4616H39.5384Z" fill="white"/>
<path d="M41.7137 19.0301L36.9595 18.3135C36.8353 17.6969 36.6722 17.0874 36.4717 16.4904L40.2322 13.4943C40.5895 13.2098 40.6848 12.7066 40.4566 12.311L39.054 9.88087C38.8257 9.48524 38.3422 9.31632 37.9172 9.48312L33.4366 11.2428C33.0188 10.7724 32.5731 10.3276 32.1038 9.91272L33.8674 5.4345C34.0348 5.00942 33.8661 4.52573 33.4705 4.29709L31.035 2.88912C30.6393 2.66019 30.1358 2.75564 29.851 3.11305L26.8534 6.8757C26.257 6.67733 25.6483 6.51441 25.0329 6.38859L24.3207 1.63244C24.253 1.1805 23.8649 0.846069 23.4078 0.846069H20.5973C20.1406 0.846069 19.7526 1.17995 19.6846 1.63152L18.9673 6.38841C18.3519 6.51422 17.7429 6.67715 17.1464 6.87561L14.1487 3.11296C13.8636 2.75527 13.3597 2.66001 12.964 2.88949L10.5339 4.29745C10.1392 4.52619 9.97064 5.00896 10.1375 5.43358L11.8972 9.91401C11.4288 10.3299 10.9845 10.7742 10.5685 11.2427L6.08809 9.48302C5.66338 9.31623 5.18061 9.48478 4.95197 9.87949L3.544 12.3096C3.3147 12.7053 3.40978 13.2093 3.76747 13.4943L7.53012 16.492C7.33166 17.0884 7.16874 17.6974 7.04292 18.3129L2.28593 19.03C1.83437 19.0981 1.50049 19.4861 1.50049 19.9428V22.7534C1.50049 23.2104 1.83492 23.5985 2.28686 23.6663L7.04301 24.3785C7.21424 25.2158 7.45406 26.0408 7.75849 26.8389C7.94052 27.3161 8.47489 27.5538 8.95 27.3723C9.4263 27.1906 9.6651 26.6572 9.48344 26.1808C9.1432 25.2891 8.89452 24.3595 8.74424 23.4179C8.68083 23.0205 8.36735 22.7101 7.96941 22.6505L3.34664 21.9582V20.7371L7.97033 20.0401C8.3679 19.9802 8.68092 19.6698 8.74424 19.2728C8.89452 18.3313 9.1432 17.4016 9.48344 16.5098C9.6267 16.1343 9.51049 15.7093 9.19618 15.4588L5.54043 12.5463L6.15169 11.4914L10.5071 13.2019C10.8813 13.3487 11.3071 13.237 11.5605 12.9254C12.1619 12.1864 12.8413 11.507 13.5801 10.9059C13.8916 10.6524 14.0035 10.2265 13.8566 9.85253L12.1461 5.49709L13.2009 4.88582L16.1135 8.54167C16.3639 8.85598 16.7889 8.97201 17.1645 8.82893C18.0563 8.48869 18.9859 8.24001 19.9274 8.08973C20.3244 8.02641 20.6348 7.71339 20.6948 7.31582L21.3917 2.69232H22.6127L23.305 7.31509C23.3647 7.71302 23.6752 8.02659 24.0725 8.08992C25.014 8.2401 25.9437 8.48887 26.8354 8.82912C27.211 8.97238 27.6361 8.85616 27.8865 8.54186L30.7995 4.88545L31.8585 5.49764L30.1437 9.85189C29.9959 10.227 30.1088 10.6547 30.4223 10.9081C31.1603 11.5044 31.8407 12.1832 32.4448 12.9255C32.6983 13.2371 33.1241 13.3489 33.4982 13.2021L37.8525 11.492L38.4606 12.5456L34.8037 15.459C34.488 15.7106 34.3724 16.1379 34.5181 16.5143C34.8622 17.4028 35.11 18.3293 35.2548 19.2682C35.3164 19.6673 35.6301 19.9801 36.0296 20.0403L40.6532 20.7373V21.9584L36.0304 22.6507C35.6308 22.7105 35.3165 23.0235 35.2549 23.4229C35.1101 24.3618 34.8621 25.2884 34.5182 26.1767C34.3341 26.6521 34.5702 27.1867 35.0457 27.3709C35.5211 27.5551 36.0557 27.3189 36.2398 26.8434C36.5494 26.0441 36.7906 25.2177 36.9598 24.3784L41.7131 23.6665C42.1651 23.5988 42.4995 23.2107 42.4995 22.7535V19.943C42.4991 19.4862 42.1653 19.0982 41.7137 19.0301Z" fill="white"/>
<path d="M32.1539 21.1539C32.1539 15.555 27.5989 11 22 11C16.4012 11 11.8462 15.555 11.8462 21.1539C11.8462 21.6637 12.2595 22.0769 12.7693 22.0769C13.2791 22.0769 13.6923 21.6637 13.6923 21.1539C13.6923 16.573 17.4192 12.8462 22 12.8462C26.5809 12.8462 30.3077 16.573 30.3077 21.1539C30.3077 21.6637 30.7211 22.0769 31.2308 22.0769C31.7405 22.0769 32.1539 21.6637 32.1539 21.1539Z" fill="white"/>
<path d="M4.46113 8.23078C5.98808 8.23078 7.23036 6.9885 7.23036 5.46155C7.23036 3.9346 5.98808 2.69232 4.46113 2.69232C2.93417 2.69232 1.69189 3.9346 1.69189 5.46155C1.69189 6.9885 2.93417 8.23078 4.46113 8.23078ZM4.46113 4.53847C4.97011 4.53847 5.3842 4.95257 5.3842 5.46155C5.3842 5.97054 4.97011 6.38463 4.46113 6.38463C3.95214 6.38463 3.53805 5.97054 3.53805 5.46155C3.53805 4.95257 3.95214 4.53847 4.46113 4.53847Z" fill="white"/>
<path d="M39.5385 8.23078C41.5744 8.23078 43.2308 6.57441 43.2308 4.53847C43.2308 2.50253 41.5744 0.846161 39.5385 0.846161C37.5026 0.846161 35.8462 2.50253 35.8462 4.53847C35.8462 6.57441 37.5026 8.23078 39.5385 8.23078ZM39.5385 2.69231C40.5565 2.69231 41.3847 3.5205 41.3847 4.53847C41.3847 5.55644 40.5565 6.38462 39.5385 6.38462C38.5205 6.38462 37.6923 5.55644 37.6923 4.53847C37.6923 3.5205 38.5205 2.69231 39.5385 2.69231Z" fill="white"/>
</svg>
