<svg width="22" height="20" viewBox="0 0 22 20" fill="none" xmlns="http://www.w3.org/2000/svg">
<path d="M12.289 4.216L17.228 0.375002C17.4203 0.225622 17.6605 0.151532 17.9035 0.166628C18.1465 0.181725 18.3757 0.284972 18.548 0.457002L21.543 3.451C21.7153 3.62338 21.8187 3.85274 21.8338 4.09599C21.8489 4.33925 21.7747 4.57964 21.625 4.772L17.785 9.71C18.0558 10.8144 18.072 11.9659 17.8325 13.0775C17.5931 14.1891 17.1041 15.2318 16.4027 16.1267C15.7012 17.0217 14.8056 17.7456 13.7833 18.2437C12.7611 18.7418 11.6391 19.0011 10.502 19.002C7 19.002 2.5 17.5 0 16C3.98 13 3.047 11.19 3.5 9.5C4.558 5.55 8.342 3.243 12.289 4.216ZM15.702 6.095C15.767 6.158 15.832 6.223 15.895 6.289L17.03 7.423L19.505 4.241L17.759 2.495L14.577 4.97L15.702 6.095Z" fill="white"/>
</svg>
