<svg width="19" height="24" viewBox="0 0 19 24" fill="none" xmlns="http://www.w3.org/2000/svg">
<path d="M9.62406 7.22201C8.74806 7.22201 7.39206 6.22601 5.96406 6.26201C4.08006 6.28601 2.35206 7.35401 1.38006 9.04601C-0.575938 12.442 0.876061 17.458 2.78406 20.218C3.72006 21.562 4.82406 23.074 6.28806 23.026C7.69206 22.966 8.22006 22.114 9.92406 22.114C11.6161 22.114 12.0961 23.026 13.5841 22.99C15.0961 22.966 16.0561 21.622 16.9801 20.266C18.0481 18.706 18.4921 17.194 18.5161 17.11C18.4801 17.098 15.5761 15.982 15.5401 12.622C15.5161 9.814 17.8321 8.47001 17.9401 8.41001C16.6201 6.47801 14.5921 6.26201 13.8841 6.21401C12.0361 6.07001 10.4881 7.22201 9.62406 7.22201ZM12.7441 4.39001C13.5241 3.45401 14.0401 2.14601 13.8961 0.850006C12.7801 0.898006 11.4361 1.59401 10.6321 2.53001C9.91206 3.35801 9.28806 4.69001 9.45606 5.96201C10.6921 6.05801 11.9641 5.32601 12.7441 4.39001Z" fill="white"/>
</svg>
